<svg version="1.2" xmlns="http://www.w3.org/2000/svg" viewBox="0 0 3600 2400" width="3600" height="2400">
	<title>futuristic-6692617</title>
	<defs>
		<radialGradient id="g1" cx="0" cy="0" r="1" gradientUnits="userSpaceOnUse" gradientTransform="matrix(1635.424,0,0,1635.424,1800,1200)">
			<stop offset="0" stop-color="#ffffff"/>
			<stop offset="1" stop-color="#000000"/>
		</radialGradient>
	</defs>
	<style>
		.s0 { fill: #12006d } 
		.s1 { fill: #1146e3 } 
		.s2 { fill: #0049ff } 
		.s3 { opacity: .4;mix-blend-mode: overlay;fill: url(#g1) } 
	</style>
	<g id="Layer 3">
		<path id="&lt;Path&gt;" class="s0" d="m3600 2400h-3600v-2400h3600z"/>
		<g id="&lt;Group&gt;">
			<g id="&lt;Group&gt;">
				<path id="&lt;Compound Path&gt;" fill-rule="evenodd" class="s1" d="m2597.3 1515.5h35.2l-124.9 124.8h-35.1zm27 3.4h-25.6l-118.1 118.1h25.6z"/>
			</g>
			<path id="&lt;Path&gt;" class="s1" d="m2612.1 1523.9l-107.9 108h-11.3l107.9-108z"/>
			<g id="&lt;Group&gt;">
				<path id="&lt;Compound Path&gt;" fill-rule="evenodd" class="s1" d="m2111.5 1515.5h35.1l-124.8 124.8h-35.1zm27 3.4h-25.6l-118.1 118.1h25.6z"/>
			</g>
			<path id="&lt;Path&gt;" class="s1" d="m2126.3 1523.9l-108 108h-11.2l107.9-108z"/>
			<g id="&lt;Group&gt;">
				<path id="&lt;Compound Path&gt;" fill-rule="evenodd" class="s1" d="m2172.3 1515.5h399.4l-124.8 124.8h-399.5zm391.4 3.4h-390l-118.1 118.1h390z"/>
			</g>
			<path id="&lt;Path&gt;" class="s1" d="m2551.4 1523.9l-108 108h-375.6l107.9-108z"/>
			<g id="&lt;Group&gt;">
				<path id="&lt;Compound Path&gt;" fill-rule="evenodd" class="s1" d="m2658.1 1515.5h35.1l-124.8 124.8h-35.2zm27 3.4h-25.6l-118.1 118.1h25.6z"/>
			</g>
			<path id="&lt;Path&gt;" class="s1" d="m2672.8 1523.9l-107.9 108h-11.3l107.9-108z"/>
			<g id="&lt;Group&gt;">
				<path id="&lt;Compound Path&gt;" fill-rule="evenodd" class="s1" d="m2961.7 2001.3h35.1l-124.8 124.8h-35.1zm27 3.4h-25.6l-118.1 118.1h25.6z"/>
			</g>
			<path id="&lt;Path&gt;" class="s1" d="m2976.5 2009.7l-108 108h-11.3l108-108z"/>
			<g id="&lt;Group&gt;">
				<path id="&lt;Compound Path&gt;" fill-rule="evenodd" class="s1" d="m3022.4 2001.3h35.1l-124.8 124.8h-35.1zm27 3.4h-25.6l-118.1 118.1h25.6z"/>
			</g>
			<path id="&lt;Path&gt;" class="s1" d="m3037.2 2009.7l-108 108h-11.3l108-108z"/>
			<g id="&lt;Group&gt;">
				<path id="&lt;Compound Path&gt;" fill-rule="evenodd" class="s1" d="m3083.1 2001.3h35.2l-124.9 124.8h-35.1zm27 3.4h-25.6l-118.1 118.1h25.6z"/>
			</g>
			<path id="&lt;Path&gt;" class="s1" d="m3097.9 2009.7l-107.9 108h-11.3l107.9-108z"/>
			<g id="&lt;Group&gt;">
				<path id="&lt;Compound Path&gt;" fill-rule="evenodd" class="s1" d="m3143.9 2001.3h35.1l-124.8 124.8h-35.2zm27 3.4h-25.6l-118.1 118.1h25.6z"/>
			</g>
			<path id="&lt;Path&gt;" class="s1" d="m3158.6 2009.7l-107.9 108h-11.3l108-108z"/>
			<g id="&lt;Group&gt;">
				<path id="&lt;Compound Path&gt;" fill-rule="evenodd" class="s1" d="m3204.6 2001.3h35.1l-124.8 124.8h-35.1zm26.9 3.4h-25.5l-118.1 118.1h25.6z"/>
			</g>
			<path id="&lt;Path&gt;" class="s1" d="m3219.3 2009.7l-107.9 108h-11.3l108-108z"/>
			<g id="&lt;Group&gt;">
				<path id="&lt;Compound Path&gt;" fill-rule="evenodd" class="s1" d="m3265.3 2001.3h35.1l-124.8 124.8h-35.1zm27 3.4h-25.6l-118.1 118.1h25.6z"/>
			</g>
			<path id="&lt;Path&gt;" class="s1" d="m3280.1 2009.7l-108 108h-11.2l107.9-108z"/>
			<g id="&lt;Group&gt;">
				<path id="&lt;Compound Path&gt;" fill-rule="evenodd" class="s1" d="m3326 2001.3h35.2l-124.9 124.8h-35.1zm27 3.4h-25.6l-118.1 118.1h25.6z"/>
			</g>
			<path id="&lt;Path&gt;" class="s1" d="m3340.8 2009.7l-108 108h-11.2l107.9-108z"/>
			<g id="&lt;Group&gt;">
				<path id="&lt;Compound Path&gt;" fill-rule="evenodd" class="s1" d="m3386.8 2001.3h35.1l-124.8 124.8h-35.2zm27 3.4h-25.6l-118 118.1h25.5z"/>
			</g>
			<path id="&lt;Path&gt;" class="s1" d="m3401.5 2009.7l-107.9 108h-11.3l108-108z"/>
			<g id="&lt;Group&gt;">
				<path id="&lt;Compound Path&gt;" fill-rule="evenodd" class="s1" d="m2384.8 1788.7h35.1l-124.8 124.9h-35.1zm26.9 3.3h-25.5l-118.1 118.1h25.6z"/>
			</g>
			<path id="&lt;Path&gt;" class="s1" d="m2399.6 1797.2l-108 107.9h-11.3l108-107.9z"/>
			<g id="&lt;Group&gt;">
				<path id="&lt;Compound Path&gt;" fill-rule="evenodd" class="s1" d="m2445.5 1788.7h35.1l-124.8 124.9h-35.1zm27 3.3h-25.6l-118.1 118.1h25.6z"/>
			</g>
			<path id="&lt;Path&gt;" class="s1" d="m2460.3 1797.2l-108 107.9h-11.2l107.9-107.9z"/>
			<g id="&lt;Group&gt;">
				<path id="&lt;Compound Path&gt;" fill-rule="evenodd" class="s1" d="m2718.8 1515.5h95.8l-124.8 124.8h-95.8zm87.7 3.4h-86.4l-118 118.1h86.3z"/>
			</g>
			<path id="&lt;Path&gt;" class="s1" d="m2794.3 1523.9l-108 108h-72l108-108z"/>
			<g id="&lt;Group&gt;">
				<path id="&lt;Compound Path&gt;" fill-rule="evenodd" class="s1" d="m2081.2 1788.7h35.1l-124.8 124.9h-35.2zm27 3.3h-25.6l-118 118.1h25.5z"/>
			</g>
			<path id="&lt;Path&gt;" class="s1" d="m2095.9 1797.2l-107.9 107.9h-11.3l108-107.9z"/>
			<g id="&lt;Group&gt;">
				<path id="&lt;Compound Path&gt;" fill-rule="evenodd" class="s1" d="m2141.9 1788.7h35.1l-124.8 124.9h-35.2zm27 3.3h-25.5l-118.1 118.1h25.6z"/>
			</g>
			<path id="&lt;Path&gt;" class="s1" d="m2156.7 1797.2l-108 107.9h-11.3l108-107.9z"/>
			<g id="&lt;Group&gt;">
				<path id="&lt;Compound Path&gt;" fill-rule="evenodd" class="s1" d="m2202.6 1788.7h95.9l-124.9 124.9h-95.8zm87.7 3.3h-86.3l-118.1 118.1h86.3z"/>
			</g>
			<path id="&lt;Path&gt;" class="s1" d="m2278.1 1797.2l-107.9 107.9h-72l107.9-107.9z"/>
			<path id="&lt;Path&gt;" class="s1" d="m1201.3 1714.5c5.3 0 9.9-2.7 12.7-6.7h294.5l60.7-60.8h394.7l151.8-151.8h1484.3v-16.8h-1491.3l-151.8 151.8h-394.7l-60.7 60.7h-287.5c-2.8-4.1-7.4-6.7-12.7-6.7-8.3 0-15.2 6.8-15.2 15.1 0 8.4 6.9 15.2 15.2 15.2z"/>
			<path id="&lt;Path&gt;" class="s1" d="m897.7 1866.3c7.8 0 14.2-5.9 15-13.5h107.2l60.7-60.7h394.7l121.5-121.4h1093l151.8-151.8h758.4v-3.4h-759.8l-151.8 151.8h-1093l-121.5 121.4h-394.7l-60.8 60.8h-105.7c-0.8-7.6-7.2-13.5-15-13.5-8.4 0-15.2 6.8-15.2 15.2 0 8.3 6.8 15.1 15.2 15.1z"/>
			<path id="&lt;Path&gt;" class="s1" d="m776.3 1927.1c7.8 0 14.1-6 15-13.5h137.5l30.3-30.4h60.8l60.7-60.7h394.7l121.5-121.5h1093l151.8-151.8h758.4v-3.4h-759.8l-151.8 151.8h-1093l-121.5 121.5h-394.7l-60.8 60.7h-60.7l-30.3 30.4h-136.1c-0.9-7.6-7.2-13.5-15-13.5-8.4 0-15.2 6.8-15.2 15.2 0 8.4 6.8 15.2 15.2 15.2z"/>
			<path id="&lt;Path&gt;" class="s1" d="m563.7 2018.1c5.3 0 9.9-2.6 12.6-6.7h689.3l60.7-60.7h576.9l182.1-182.2h418.2l30.3 30.4h189.2l121.4-121.5h755.6v-16.9h-762.6l-121.4 121.5h-175.2l-30.4-30.4h-432l-182.2 182.2h-576.9l-60.7 60.7h-682.3c-2.7-4-7.3-6.7-12.6-6.7-8.4 0-15.2 6.8-15.2 15.2 0 8.4 6.8 15.1 15.2 15.1z"/>
			<g id="&lt;Group&gt;">
				<path id="&lt;Compound Path&gt;" fill-rule="evenodd" class="s1" d="m1565 1758.4h490.6l-64.1 64.1h-490.6zm482.4 3.4h-481l-57.4 57.3h481.1z"/>
			</g>
			<path id="&lt;Path&gt;" class="s1" d="m2035.2 1766.8l-47.2 47.2h-466.8l47.3-47.2z"/>
			<g id="&lt;Group&gt;">
				<path id="&lt;Compound Path&gt;" fill-rule="evenodd" class="s1" d="m1079.2 1849.5h885.3l-33.8 33.7h-885.3zm877.2 3.4h-875.7l-27 27h875.7z"/>
			</g>
			<path id="&lt;Path&gt;" class="s1" d="m1944.1 1857.9l-16.9 16.9h-861.4l16.9-16.9z"/>
			<path id="&lt;Path&gt;" class="s1" d="m411.9 1927.1c7.8 0 14.2-6 15-13.5h227.2l60.7 60.7h335.4l60.7-60.7h819.1v-3.4h-820.4l-60.8 60.7h-332.6l-60.7-60.7h-228.6c-0.8-7.6-7.2-13.5-15-13.5-8.4 0-15.2 6.8-15.2 15.2 0 8.4 6.8 15.2 15.2 15.2z"/>
			<path id="&lt;Path&gt;" class="s1" d="m1474.6 2048.5c7.8 0 14.2-5.9 15-13.5h137.5l30.4-30.3h334l60.7-60.8h151.8l182.7-182.6-2.4-2.4-181.7 181.7h-151.8l-60.7 60.7h-334l-30.4 30.3h-136.1c-0.8-7.5-7.2-13.5-15-13.5-8.4 0-15.2 6.8-15.2 15.2 0 8.4 6.8 15.2 15.2 15.2z"/>
			<path id="&lt;Path&gt;" class="s1" d="m867.3 2170c7.9 0 14.2-6 15-13.5h107.2l60.7-60.8h242.9l121.5-121.4h425l30.9-30.9-2.4-2.3-29.9 29.8h-425l-121.5 121.5h-242.9l-60.7 60.7h-105.8c-0.8-7.6-7.1-13.5-15-13.5-8.3 0-15.2 6.8-15.2 15.2 0 8.4 6.9 15.2 15.2 15.2z"/>
			<path id="&lt;Path&gt;" class="s1" d="m199.3 2109.2c7.9 0 14.2-5.9 15.1-13.5h592.9l30.4-30.3h425.1l121.9-122-2.4-2.3-120.9 120.9h-425.1l-30.4 30.4h-591.5c-0.9-7.6-7.2-13.5-15.1-13.5-8.3 0-15.1 6.8-15.1 15.2 0 8.3 6.8 15.1 15.1 15.1z"/>
			<g id="&lt;Group&gt;">
				<path id="&lt;Path&gt;" class="s1" d="m2780.2 1728h819.8v3.4h-819.8z"/>
			</g>
			<g id="&lt;Group&gt;">
				<path id="&lt;Path&gt;" class="s1" d="m2749.8 1758.4h425.8l30.4 30.3h211.1l30.4-30.3h152.5v3.4h-151.1l-30.4 30.3h-213.9l-30.4-30.3h-424.4z"/>
			</g>
			<g id="&lt;Group&gt;">
				<path id="&lt;Path&gt;" class="s1" d="m3052.8 1606.6h274.6l30.4 30.3h242.2v3.4h-243.6l-30.4-30.4h-271.8l-30.4 30.4h-212.5l-121.5 121.5h-91.1l-29.8 29.8-2.4-2.4 30.8-30.8h91.1l121.5-121.5h212.5z"/>
			</g>
			<path id="&lt;Path&gt;" class="s1" d="m1505 2170c7.8 0 14.1-6 15-13.5h228.6l121.4-121.5h728.7l242.9-242.9h120.1l60.7 60.7h577.6v-3.3h-576.2l-60.7-60.8h-122.9l-242.9 242.9h-728.7l-121.4 121.5h-227.2c-0.9-7.6-7.2-13.5-15-13.5-8.4 0-15.2 6.8-15.2 15.2 0 8.4 6.8 15.2 15.2 15.2z"/>
			<path id="&lt;Path&gt;" class="s1" d="m1960.4 2230.7c7.8 0 14.2-5.9 15-13.5h198.2l121.5-121.5h150.4l60.7 60.8h274.7l182.2-182.2h636.9v-3.4h-638.3l-182.2 182.2h-271.9l-60.7-60.7h-153.2l-121.4 121.4h-196.9c-0.8-7.6-7.2-13.5-15-13.5-8.4 0-15.2 6.8-15.2 15.2 0 8.4 6.8 15.2 15.2 15.2z"/>
			<path id="&lt;Path&gt;" class="s1" d="m1383.5 1502c7.8 0 14.2-5.9 15-13.5h532.2l60.8-60.7h1213.1l60.2 60.2 2.4-2.4-61.2-61.2h-1215.9l-60.8 60.7h-530.8c-0.8-7.6-7.2-13.5-15-13.5-8.4 0-15.2 6.8-15.2 15.2 0 8.4 6.8 15.2 15.2 15.2z"/>
			<path id="&lt;Path&gt;" class="s1" d="m1990.8 1319.8c7.8 0 14.1-5.9 15-13.5h318.3l60.7 60.7h335.4l30.3-30.3h454.1l151.3 151.3 2.4-2.4-152.3-152.3h-456.9l-30.3 30.4h-332.6l-60.7-60.8h-319.7c-0.9-7.5-7.2-13.5-15-13.5-8.4 0-15.2 6.8-15.2 15.2 0 8.4 6.8 15.2 15.2 15.2z"/>
			<path id="&lt;Path&gt;" class="s1" d="m2415.8 2230.7c7.9 0 14.2-5.9 15.1-13.5h441.1l60.7-60.7h364.4l151.8-151.8h151.1v-3.4h-152.5l-151.8 151.8h-364.4l-60.7 60.7h-439.7c-0.9-7.6-7.2-13.5-15.1-13.5-8.3 0-15.1 6.8-15.1 15.2 0 8.4 6.8 15.2 15.1 15.2z"/>
			<path id="&lt;Path&gt;" class="s1" d="m2112.2 1987.8c7.8 0 14.2-5.9 15-13.5h228.6l121.5-121.5h121.4l61.2-61.2-2.3-2.4-60.3 60.3h-121.4l-121.5 121.4h-227.2c-0.8-7.6-7.2-13.5-15-13.5-8.4 0-15.2 6.8-15.2 15.2 0 8.4 6.8 15.2 15.2 15.2z"/>
			<path id="&lt;Path&gt;" class="s1" d="m2021.1 2109.2c5.3 0 9.9-2.6 12.6-6.7h112.4l30.3-30.4h455.5l182.2-182.2h785.9v-16.8h-792.9l-182.2 182.2h-455.5l-30.3 30.3h-105.4c-2.7-4-7.3-6.7-12.6-6.7-8.3 0-15.1 6.8-15.1 15.2 0 8.3 6.8 15.1 15.1 15.1z"/>
			<g id="&lt;Group&gt;">
				<path id="&lt;Path&gt;" class="s1" d="m2870.6 1910.2h729.4v3.4h-728l-60.7 60.7h-91.8v-3.4h90.4z"/>
			</g>
			<path id="&lt;Path&gt;" class="s1" d="m1019.1 1562.7c7.9 0 14.2-5.9 15.1-13.5h773.7l30.3 30.4h182.9v-3.4h-181.5l-30.3-30.4h-775.1c-0.9-7.5-7.2-13.5-15.1-13.5-8.3 0-15.1 6.8-15.1 15.2 0 8.4 6.8 15.2 15.1 15.2z"/>
			<path id="&lt;Path&gt;" class="s1" d="m2719.5 2291.4c5.2 0 9.9-2.7 12.6-6.7h203.4l91.1-91.1h303.6l91.1-91.1h178.7v-16.9h-185.7l-91 91.1h-303.7l-91.1 91.1h-196.4c-2.7-4.1-7.4-6.7-12.6-6.7-8.4 0-15.2 6.7-15.2 15.1 0 8.4 6.8 15.2 15.2 15.2z"/>
			<path id="&lt;Path&gt;" class="s1" d="m2840.9 2352.1c7.8 0 14.2-5.9 15.1-13.5h137.4l60.8-60.7h60.7l60.7-60.7h424.4v-3.4h-425.8l-60.7 60.7h-60.7l-60.7 60.8h-136.1c-0.9-7.6-7.3-13.5-15.1-13.5-8.4 0-15.1 6.8-15.1 15.2 0 8.3 6.7 15.1 15.1 15.1z"/>
		</g>
		<g id="&lt;Group&gt;" style="opacity: .2">
			<g id="&lt;Group&gt;">
				<path id="&lt;Compound Path&gt;" fill-rule="evenodd" class="s2" d="m2587.3 1505.5h35.2l-124.9 124.8h-35.1zm27 3.4h-25.6l-118.1 118.1h25.6z"/>
			</g>
			<path id="&lt;Path&gt;" class="s2" d="m2602.1 1513.9l-107.9 108h-11.3l107.9-108z"/>
			<g id="&lt;Group&gt;">
				<path id="&lt;Compound Path&gt;" fill-rule="evenodd" class="s2" d="m2101.5 1505.5h35.1l-124.8 124.8h-35.1zm27 3.4h-25.6l-118.1 118.1h25.6z"/>
			</g>
			<path id="&lt;Path&gt;" class="s2" d="m2116.3 1513.9l-108 108h-11.2l107.9-108z"/>
			<g id="&lt;Group&gt;">
				<path id="&lt;Compound Path&gt;" fill-rule="evenodd" class="s2" d="m2162.3 1505.5h399.4l-124.8 124.8h-399.5zm391.4 3.4h-390l-118.1 118.1h390z"/>
			</g>
			<path id="&lt;Path&gt;" class="s2" d="m2541.4 1513.9l-108 108h-375.6l107.9-108z"/>
			<g id="&lt;Group&gt;">
				<path id="&lt;Compound Path&gt;" fill-rule="evenodd" class="s2" d="m2648.1 1505.5h35.1l-124.8 124.8h-35.2zm27 3.4h-25.6l-118.1 118.1h25.6z"/>
			</g>
			<path id="&lt;Path&gt;" class="s2" d="m2662.8 1513.9l-107.9 108h-11.3l107.9-108z"/>
			<g id="&lt;Group&gt;">
				<path id="&lt;Compound Path&gt;" fill-rule="evenodd" class="s2" d="m2951.7 1991.3h35.1l-124.8 124.8h-35.1zm27 3.4h-25.6l-118.1 118.1h25.6z"/>
			</g>
			<path id="&lt;Path&gt;" class="s2" d="m2966.5 1999.7l-108 108h-11.3l108-108z"/>
			<g id="&lt;Group&gt;">
				<path id="&lt;Compound Path&gt;" fill-rule="evenodd" class="s2" d="m3012.4 1991.3h35.1l-124.8 124.8h-35.1zm27 3.4h-25.6l-118.1 118.1h25.6z"/>
			</g>
			<path id="&lt;Path&gt;" class="s2" d="m3027.2 1999.7l-108 108h-11.3l108-108z"/>
			<g id="&lt;Group&gt;">
				<path id="&lt;Compound Path&gt;" fill-rule="evenodd" class="s2" d="m3073.1 1991.3h35.2l-124.9 124.8h-35.1zm27 3.4h-25.6l-118.1 118.1h25.6z"/>
			</g>
			<path id="&lt;Path&gt;" class="s2" d="m3087.9 1999.7l-107.9 108h-11.3l107.9-108z"/>
			<g id="&lt;Group&gt;">
				<path id="&lt;Compound Path&gt;" fill-rule="evenodd" class="s2" d="m3133.9 1991.3h35.1l-124.8 124.8h-35.2zm27 3.4h-25.6l-118.1 118.1h25.6z"/>
			</g>
			<path id="&lt;Path&gt;" class="s2" d="m3148.6 1999.7l-107.9 108h-11.3l108-108z"/>
			<g id="&lt;Group&gt;">
				<path id="&lt;Compound Path&gt;" fill-rule="evenodd" class="s2" d="m3194.6 1991.3h35.1l-124.8 124.8h-35.1zm26.9 3.4h-25.5l-118.1 118.1h25.6z"/>
			</g>
			<path id="&lt;Path&gt;" class="s2" d="m3209.3 1999.7l-107.9 108h-11.3l108-108z"/>
			<g id="&lt;Group&gt;">
				<path id="&lt;Compound Path&gt;" fill-rule="evenodd" class="s2" d="m3255.3 1991.3h35.1l-124.8 124.8h-35.1zm27 3.4h-25.6l-118.1 118.1h25.6z"/>
			</g>
			<path id="&lt;Path&gt;" class="s2" d="m3270.1 1999.7l-108 108h-11.2l107.9-108z"/>
			<g id="&lt;Group&gt;">
				<path id="&lt;Compound Path&gt;" fill-rule="evenodd" class="s2" d="m3316 1991.3h35.2l-124.9 124.8h-35.1zm27 3.4h-25.6l-118.1 118.1h25.6z"/>
			</g>
			<path id="&lt;Path&gt;" class="s2" d="m3330.8 1999.7l-108 108h-11.2l107.9-108z"/>
			<g id="&lt;Group&gt;">
				<path id="&lt;Compound Path&gt;" fill-rule="evenodd" class="s2" d="m3376.8 1991.3h35.1l-124.8 124.8h-35.2zm27 3.4h-25.6l-118 118.1h25.5z"/>
			</g>
			<path id="&lt;Path&gt;" class="s2" d="m3391.5 1999.7l-107.9 108h-11.3l108-108z"/>
			<g id="&lt;Group&gt;">
				<path id="&lt;Compound Path&gt;" fill-rule="evenodd" class="s2" d="m2374.8 1778.7h35.1l-124.8 124.9h-35.1zm26.9 3.3h-25.5l-118.1 118.1h25.6z"/>
			</g>
			<path id="&lt;Path&gt;" class="s2" d="m2389.6 1787.2l-108 107.9h-11.3l108-107.9z"/>
			<g id="&lt;Group&gt;">
				<path id="&lt;Compound Path&gt;" fill-rule="evenodd" class="s2" d="m2435.5 1778.7h35.1l-124.8 124.9h-35.1zm27 3.3h-25.6l-118.1 118.1h25.6z"/>
			</g>
			<path id="&lt;Path&gt;" class="s2" d="m2450.3 1787.2l-108 107.9h-11.2l107.9-107.9z"/>
			<g id="&lt;Group&gt;">
				<path id="&lt;Compound Path&gt;" fill-rule="evenodd" class="s2" d="m2708.8 1505.5h95.8l-124.8 124.8h-95.8zm87.7 3.4h-86.4l-118 118.1h86.3z"/>
			</g>
			<path id="&lt;Path&gt;" class="s2" d="m2784.3 1513.9l-108 108h-72l108-108z"/>
			<g id="&lt;Group&gt;">
				<path id="&lt;Compound Path&gt;" fill-rule="evenodd" class="s2" d="m2071.2 1778.7h35.1l-124.8 124.9h-35.2zm27 3.3h-25.6l-118 118.1h25.5z"/>
			</g>
			<path id="&lt;Path&gt;" class="s2" d="m2085.9 1787.2l-107.9 107.9h-11.3l108-107.9z"/>
			<g id="&lt;Group&gt;">
				<path id="&lt;Compound Path&gt;" fill-rule="evenodd" class="s2" d="m2131.9 1778.7h35.1l-124.8 124.9h-35.2zm27 3.3h-25.5l-118.1 118.1h25.6z"/>
			</g>
			<path id="&lt;Path&gt;" class="s2" d="m2146.7 1787.2l-108 107.9h-11.3l108-107.9z"/>
			<g id="&lt;Group&gt;">
				<path id="&lt;Compound Path&gt;" fill-rule="evenodd" class="s2" d="m2192.6 1778.7h95.9l-124.9 124.9h-95.8zm87.7 3.3h-86.3l-118.1 118.1h86.3z"/>
			</g>
			<path id="&lt;Path&gt;" class="s2" d="m2268.1 1787.2l-107.9 107.9h-72l107.9-107.9z"/>
			<path id="&lt;Path&gt;" class="s2" d="m1191.3 1704.5c5.3 0 9.9-2.7 12.7-6.7h294.5l60.7-60.8h394.7l151.8-151.8h1484.3v-16.8h-1491.3l-151.8 151.8h-394.7l-60.7 60.7h-287.5c-2.8-4.1-7.4-6.7-12.7-6.7-8.3 0-15.2 6.8-15.2 15.1 0 8.4 6.9 15.2 15.2 15.2z"/>
			<path id="&lt;Path&gt;" class="s2" d="m887.7 1856.3c7.8 0 14.2-5.9 15-13.5h107.2l60.7-60.7h394.7l121.5-121.4h1093l151.8-151.8h758.4v-3.4h-759.8l-151.8 151.8h-1093l-121.5 121.4h-394.7l-60.8 60.8h-105.7c-0.8-7.6-7.2-13.5-15-13.5-8.4 0-15.2 6.8-15.2 15.2 0 8.3 6.8 15.1 15.2 15.1z"/>
			<path id="&lt;Path&gt;" class="s2" d="m766.3 1917.1c7.8 0 14.1-6 15-13.5h137.5l30.3-30.4h60.8l60.7-60.7h394.7l121.5-121.5h1093l151.8-151.8h758.4v-3.4h-759.8l-151.8 151.8h-1093l-121.5 121.5h-394.7l-60.8 60.7h-60.7l-30.3 30.4h-136.1c-0.9-7.6-7.2-13.5-15-13.5-8.4 0-15.2 6.8-15.2 15.2 0 8.4 6.8 15.2 15.2 15.2z"/>
			<path id="&lt;Path&gt;" class="s2" d="m553.7 2008.1c5.3 0 9.9-2.6 12.6-6.7h689.3l60.7-60.7h576.9l182.1-182.2h418.2l30.3 30.4h189.2l121.4-121.5h755.6v-16.9h-762.6l-121.4 121.5h-175.2l-30.4-30.4h-432l-182.2 182.2h-576.9l-60.7 60.7h-682.3c-2.7-4-7.3-6.7-12.6-6.7-8.4 0-15.2 6.8-15.2 15.2 0 8.4 6.8 15.1 15.2 15.1z"/>
			<g id="&lt;Group&gt;">
				<path id="&lt;Compound Path&gt;" fill-rule="evenodd" class="s2" d="m1555 1748.4h490.6l-64.1 64.1h-490.6zm482.4 3.4h-481l-57.4 57.3h481.1z"/>
			</g>
			<path id="&lt;Path&gt;" class="s2" d="m2025.2 1756.8l-47.2 47.2h-466.8l47.3-47.2z"/>
			<g id="&lt;Group&gt;">
				<path id="&lt;Compound Path&gt;" fill-rule="evenodd" class="s2" d="m1069.2 1839.5h885.3l-33.8 33.7h-885.3zm877.2 3.4h-875.7l-27 27h875.7z"/>
			</g>
			<path id="&lt;Path&gt;" class="s2" d="m1934.1 1847.9l-16.9 16.9h-861.4l16.9-16.9z"/>
			<path id="&lt;Path&gt;" class="s2" d="m401.9 1917.1c7.8 0 14.2-6 15-13.5h227.2l60.7 60.7h335.4l60.7-60.7h819.1v-3.4h-820.4l-60.8 60.7h-332.6l-60.7-60.7h-228.6c-0.8-7.6-7.2-13.5-15-13.5-8.4 0-15.2 6.8-15.2 15.2 0 8.4 6.8 15.2 15.2 15.2z"/>
			<path id="&lt;Path&gt;" class="s2" d="m1464.6 2038.5c7.8 0 14.2-5.9 15-13.5h137.5l30.4-30.3h334l60.7-60.8h151.8l182.7-182.6-2.4-2.4-181.7 181.7h-151.8l-60.7 60.7h-334l-30.4 30.3h-136.1c-0.8-7.5-7.2-13.5-15-13.5-8.4 0-15.2 6.8-15.2 15.2 0 8.4 6.8 15.2 15.2 15.2z"/>
			<path id="&lt;Path&gt;" class="s2" d="m857.3 2160c7.9 0 14.2-6 15-13.5h107.2l60.7-60.8h242.9l121.5-121.4h425l30.9-30.9-2.4-2.3-29.9 29.8h-425l-121.5 121.5h-242.9l-60.7 60.7h-105.8c-0.8-7.6-7.1-13.5-15-13.5-8.3 0-15.2 6.8-15.2 15.2 0 8.4 6.9 15.2 15.2 15.2z"/>
			<path id="&lt;Path&gt;" class="s2" d="m189.3 2099.2c7.9 0 14.2-5.9 15.1-13.5h592.9l30.4-30.3h425.1l121.9-122-2.4-2.3-120.9 120.9h-425.1l-30.4 30.4h-591.5c-0.9-7.6-7.2-13.5-15.1-13.5-8.3 0-15.1 6.8-15.1 15.2 0 8.3 6.8 15.1 15.1 15.1z"/>
			<g id="&lt;Group&gt;">
				<path id="&lt;Path&gt;" class="s2" d="m2770.2 1718h819.8v3.4h-819.8z"/>
			</g>
			<g id="&lt;Group&gt;">
				<path id="&lt;Path&gt;" class="s2" d="m2739.8 1748.4h425.8l30.4 30.3h211.1l30.4-30.3h152.5v3.4h-151.1l-30.4 30.3h-213.9l-30.4-30.3h-424.4z"/>
			</g>
			<g id="&lt;Group&gt;">
				<path id="&lt;Path&gt;" class="s2" d="m3042.8 1596.6h274.6l30.4 30.3h242.2v3.4h-243.6l-30.4-30.4h-271.8l-30.4 30.4h-212.5l-121.5 121.5h-91.1l-29.8 29.8-2.4-2.4 30.8-30.8h91.1l121.5-121.5h212.5z"/>
			</g>
			<path id="&lt;Path&gt;" class="s2" d="m1495 2160c7.8 0 14.1-6 15-13.5h228.6l121.4-121.5h728.7l242.9-242.9h120.1l60.7 60.7h577.6v-3.3h-576.2l-60.7-60.8h-122.9l-242.9 242.9h-728.7l-121.4 121.5h-227.2c-0.9-7.6-7.2-13.5-15-13.5-8.4 0-15.2 6.8-15.2 15.2 0 8.4 6.8 15.2 15.2 15.2z"/>
			<path id="&lt;Path&gt;" class="s2" d="m1950.4 2220.7c7.8 0 14.2-5.9 15-13.5h198.2l121.5-121.5h150.4l60.7 60.8h274.7l182.2-182.2h636.9v-3.4h-638.3l-182.2 182.2h-271.9l-60.7-60.7h-153.2l-121.4 121.4h-196.9c-0.8-7.6-7.2-13.5-15-13.5-8.4 0-15.2 6.8-15.2 15.2 0 8.4 6.8 15.2 15.2 15.2z"/>
			<path id="&lt;Path&gt;" class="s2" d="m1373.5 1492c7.8 0 14.2-5.9 15-13.5h532.2l60.8-60.7h1213.1l60.2 60.2 2.4-2.4-61.2-61.2h-1215.9l-60.8 60.7h-530.8c-0.8-7.6-7.2-13.5-15-13.5-8.4 0-15.2 6.8-15.2 15.2 0 8.4 6.8 15.2 15.2 15.2z"/>
			<path id="&lt;Path&gt;" class="s2" d="m1980.8 1309.8c7.8 0 14.1-5.9 15-13.5h318.3l60.7 60.7h335.4l30.3-30.3h454.1l151.3 151.3 2.4-2.4-152.3-152.3h-456.9l-30.3 30.4h-332.6l-60.7-60.8h-319.7c-0.9-7.5-7.2-13.5-15-13.5-8.4 0-15.2 6.8-15.2 15.2 0 8.4 6.8 15.2 15.2 15.2z"/>
			<path id="&lt;Path&gt;" class="s2" d="m2405.8 2220.7c7.9 0 14.2-5.9 15.1-13.5h441.1l60.7-60.7h364.4l151.8-151.8h151.1v-3.4h-152.5l-151.8 151.8h-364.4l-60.7 60.7h-439.7c-0.9-7.6-7.2-13.5-15.1-13.5-8.3 0-15.1 6.8-15.1 15.2 0 8.4 6.8 15.2 15.1 15.2z"/>
			<path id="&lt;Path&gt;" class="s2" d="m2102.2 1977.8c7.8 0 14.2-5.9 15-13.5h228.6l121.5-121.5h121.4l61.2-61.2-2.3-2.4-60.3 60.3h-121.4l-121.5 121.4h-227.2c-0.8-7.6-7.2-13.5-15-13.5-8.4 0-15.2 6.8-15.2 15.2 0 8.4 6.8 15.2 15.2 15.2z"/>
			<path id="&lt;Path&gt;" class="s2" d="m2011.1 2099.2c5.3 0 9.9-2.6 12.6-6.7h112.4l30.3-30.4h455.5l182.2-182.2h785.9v-16.8h-792.9l-182.2 182.2h-455.5l-30.3 30.3h-105.4c-2.7-4-7.3-6.7-12.6-6.7-8.3 0-15.1 6.8-15.1 15.2 0 8.3 6.8 15.1 15.1 15.1z"/>
			<g id="&lt;Group&gt;">
				<path id="&lt;Path&gt;" class="s2" d="m2860.6 1900.2h729.4v3.4h-728l-60.7 60.7h-91.8v-3.4h90.4z"/>
			</g>
			<path id="&lt;Path&gt;" class="s2" d="m1009.1 1552.7c7.9 0 14.2-5.9 15.1-13.5h773.7l30.3 30.4h182.9v-3.4h-181.5l-30.3-30.4h-775.1c-0.9-7.5-7.2-13.5-15.1-13.5-8.3 0-15.1 6.8-15.1 15.2 0 8.4 6.8 15.2 15.1 15.2z"/>
			<path id="&lt;Path&gt;" class="s2" d="m2709.5 2281.4c5.2 0 9.9-2.7 12.6-6.7h203.4l91.1-91.1h303.6l91.1-91.1h178.7v-16.9h-185.7l-91 91.1h-303.7l-91.1 91.1h-196.4c-2.7-4.1-7.4-6.7-12.6-6.7-8.4 0-15.2 6.7-15.2 15.1 0 8.4 6.8 15.2 15.2 15.2z"/>
			<path id="&lt;Path&gt;" class="s2" d="m2830.9 2342.1c7.8 0 14.2-5.9 15.1-13.5h137.4l60.8-60.7h60.7l60.7-60.7h424.4v-3.4h-425.8l-60.7 60.7h-60.7l-60.7 60.8h-136.1c-0.9-7.6-7.3-13.5-15.1-13.5-8.4 0-15.1 6.8-15.1 15.2 0 8.3 6.7 15.1 15.1 15.1z"/>
		</g>
		<g id="&lt;Group&gt;" style="opacity: .2">
			<g id="&lt;Group&gt;">
				<path id="&lt;Compound Path&gt;" fill-rule="evenodd" class="s2" d="m2597.3 1534h35.2l-124.9 124.9h-35.1zm27 3.3h-25.6l-118.1 118.1h25.6z"/>
			</g>
			<path id="&lt;Path&gt;" class="s2" d="m2612.1 1542.5l-107.9 107.9h-11.3l107.9-107.9z"/>
			<g id="&lt;Group&gt;">
				<path id="&lt;Compound Path&gt;" fill-rule="evenodd" class="s2" d="m2111.5 1534h35.1l-124.8 124.9h-35.1zm27 3.3h-25.6l-118.1 118.1h25.6z"/>
			</g>
			<path id="&lt;Path&gt;" class="s2" d="m2126.3 1542.5l-108 107.9h-11.2l107.9-107.9z"/>
			<g id="&lt;Group&gt;">
				<path id="&lt;Compound Path&gt;" fill-rule="evenodd" class="s2" d="m2172.3 1534h399.4l-124.8 124.9h-399.5zm391.4 3.3h-390l-118.1 118.1h390z"/>
			</g>
			<path id="&lt;Path&gt;" class="s2" d="m2551.4 1542.5l-108 107.9h-375.6l107.9-107.9z"/>
			<g id="&lt;Group&gt;">
				<path id="&lt;Compound Path&gt;" fill-rule="evenodd" class="s2" d="m2658.1 1534h35.1l-124.8 124.9h-35.2zm27 3.3h-25.6l-118.1 118.1h25.6z"/>
			</g>
			<path id="&lt;Path&gt;" class="s2" d="m2672.8 1542.5l-107.9 107.9h-11.3l107.9-107.9z"/>
			<g id="&lt;Group&gt;">
				<path id="&lt;Compound Path&gt;" fill-rule="evenodd" class="s2" d="m2961.7 2019.8h35.1l-124.8 124.9h-35.1zm27 3.3h-25.6l-118.1 118.1h25.6z"/>
			</g>
			<path id="&lt;Path&gt;" class="s2" d="m2976.5 2028.3l-108 107.9h-11.3l108-107.9z"/>
			<g id="&lt;Group&gt;">
				<path id="&lt;Compound Path&gt;" fill-rule="evenodd" class="s2" d="m3022.4 2019.8h35.1l-124.8 124.9h-35.1zm27 3.3h-25.6l-118.1 118.1h25.6z"/>
			</g>
			<path id="&lt;Path&gt;" class="s2" d="m3037.2 2028.3l-108 107.9h-11.3l108-107.9z"/>
			<g id="&lt;Group&gt;">
				<path id="&lt;Compound Path&gt;" fill-rule="evenodd" class="s2" d="m3083.1 2019.8h35.2l-124.9 124.9h-35.1zm27 3.3h-25.6l-118.1 118.1h25.6z"/>
			</g>
			<path id="&lt;Path&gt;" class="s2" d="m3097.9 2028.3l-107.9 107.9h-11.3l107.9-107.9z"/>
			<g id="&lt;Group&gt;">
				<path id="&lt;Compound Path&gt;" fill-rule="evenodd" class="s2" d="m3143.9 2019.8h35.1l-124.8 124.9h-35.2zm27 3.3h-25.6l-118.1 118.1h25.6z"/>
			</g>
			<path id="&lt;Path&gt;" class="s2" d="m3158.6 2028.3l-107.9 107.9h-11.3l108-107.9z"/>
			<g id="&lt;Group&gt;">
				<path id="&lt;Compound Path&gt;" fill-rule="evenodd" class="s2" d="m3204.6 2019.8h35.1l-124.8 124.9h-35.1zm26.9 3.3h-25.5l-118.1 118.1h25.6z"/>
			</g>
			<path id="&lt;Path&gt;" class="s2" d="m3219.3 2028.3l-107.9 107.9h-11.3l108-107.9z"/>
			<g id="&lt;Group&gt;">
				<path id="&lt;Compound Path&gt;" fill-rule="evenodd" class="s2" d="m3265.3 2019.8h35.1l-124.8 124.9h-35.1zm27 3.3h-25.6l-118.1 118.1h25.6z"/>
			</g>
			<path id="&lt;Path&gt;" class="s2" d="m3280.1 2028.3l-108 107.9h-11.2l107.9-107.9z"/>
			<g id="&lt;Group&gt;">
				<path id="&lt;Compound Path&gt;" fill-rule="evenodd" class="s2" d="m3326 2019.8h35.2l-124.9 124.9h-35.1zm27 3.3h-25.6l-118.1 118.1h25.6z"/>
			</g>
			<path id="&lt;Path&gt;" class="s2" d="m3340.8 2028.3l-108 107.9h-11.2l107.9-107.9z"/>
			<g id="&lt;Group&gt;">
				<path id="&lt;Compound Path&gt;" fill-rule="evenodd" class="s2" d="m3386.8 2019.8h35.1l-124.8 124.9h-35.2zm27 3.3h-25.6l-118 118.1h25.5z"/>
			</g>
			<path id="&lt;Path&gt;" class="s2" d="m3401.5 2028.3l-107.9 107.9h-11.3l108-107.9z"/>
			<g id="&lt;Group&gt;">
				<path id="&lt;Compound Path&gt;" fill-rule="evenodd" class="s2" d="m2384.8 1807.3h35.1l-124.8 124.8h-35.1zm26.9 3.4h-25.5l-118.1 118.1h25.6z"/>
			</g>
			<path id="&lt;Path&gt;" class="s2" d="m2399.6 1815.7l-108 108h-11.3l108-108z"/>
			<g id="&lt;Group&gt;">
				<path id="&lt;Compound Path&gt;" fill-rule="evenodd" class="s2" d="m2445.5 1807.3h35.1l-124.8 124.8h-35.1zm27 3.4h-25.6l-118.1 118.1h25.6z"/>
			</g>
			<path id="&lt;Path&gt;" class="s2" d="m2460.3 1815.7l-108 108h-11.2l107.9-108z"/>
			<g id="&lt;Group&gt;">
				<path id="&lt;Compound Path&gt;" fill-rule="evenodd" class="s2" d="m2718.8 1534h95.8l-124.8 124.9h-95.8zm87.7 3.3h-86.4l-118 118.1h86.3z"/>
			</g>
			<path id="&lt;Path&gt;" class="s2" d="m2794.3 1542.5l-108 107.9h-72l108-107.9z"/>
			<g id="&lt;Group&gt;">
				<path id="&lt;Compound Path&gt;" fill-rule="evenodd" class="s2" d="m2081.2 1807.3h35.1l-124.8 124.8h-35.2zm27 3.4h-25.6l-118 118.1h25.5z"/>
			</g>
			<path id="&lt;Path&gt;" class="s2" d="m2095.9 1815.7l-107.9 108h-11.3l108-108z"/>
			<g id="&lt;Group&gt;">
				<path id="&lt;Compound Path&gt;" fill-rule="evenodd" class="s2" d="m2141.9 1807.3h35.1l-124.8 124.8h-35.2zm27 3.4h-25.5l-118.1 118.1h25.6z"/>
			</g>
			<path id="&lt;Path&gt;" class="s2" d="m2156.7 1815.7l-108 108h-11.3l108-108z"/>
			<g id="&lt;Group&gt;">
				<path id="&lt;Compound Path&gt;" fill-rule="evenodd" class="s2" d="m2202.6 1807.3h95.9l-124.9 124.8h-95.8zm87.7 3.4h-86.3l-118.1 118.1h86.3z"/>
			</g>
			<path id="&lt;Path&gt;" class="s2" d="m2278.1 1815.7l-107.9 108h-72l107.9-108z"/>
			<path id="&lt;Path&gt;" class="s2" d="m1201.3 1733.1c5.3 0 9.9-2.7 12.7-6.8h294.5l60.7-60.7h394.7l151.8-151.8h1484.3v-16.9h-1491.3l-151.8 151.8h-394.7l-60.7 60.8h-287.5c-2.8-4.1-7.4-6.8-12.7-6.8-8.3 0-15.2 6.8-15.2 15.2 0 8.4 6.9 15.2 15.2 15.2z"/>
			<path id="&lt;Path&gt;" class="s2" d="m897.7 1884.9c7.8 0 14.2-5.9 15-13.5h107.2l60.7-60.7h394.7l121.5-121.5h1093l151.8-151.8h758.4v-3.4h-759.8l-151.8 151.8h-1093l-121.5 121.5h-394.7l-60.8 60.7h-105.7c-0.8-7.6-7.2-13.5-15-13.5-8.4 0-15.2 6.8-15.2 15.2 0 8.4 6.8 15.2 15.2 15.2z"/>
			<path id="&lt;Path&gt;" class="s2" d="m776.3 1945.6c7.8 0 14.1-5.9 15-13.5h137.5l30.3-30.3h60.8l60.7-60.8h394.7l121.5-121.4h1093l151.8-151.8h758.4v-3.4h-759.8l-151.8 151.8h-1093l-121.5 121.5h-394.7l-60.8 60.7h-60.7l-30.3 30.3h-136.1c-0.9-7.5-7.2-13.4-15-13.4-8.4 0-15.2 6.7-15.2 15.1 0 8.4 6.8 15.2 15.2 15.2z"/>
			<path id="&lt;Path&gt;" class="s2" d="m563.7 2036.7c5.3 0 9.9-2.7 12.6-6.7h689.3l60.7-60.8h576.9l182.1-182.1h418.2l30.3 30.3h189.2l121.4-121.4h755.6v-16.9h-762.6l-121.4 121.4h-175.2l-30.4-30.3h-432l-182.2 182.2h-576.9l-60.7 60.7h-682.3c-2.7-4.1-7.3-6.8-12.6-6.8-8.4 0-15.2 6.8-15.2 15.2 0 8.4 6.8 15.2 15.2 15.2z"/>
			<g id="&lt;Group&gt;">
				<path id="&lt;Compound Path&gt;" fill-rule="evenodd" class="s2" d="m1565 1776.9h490.6l-64.1 64.1h-490.6zm482.4 3.4h-481l-57.4 57.4h481.1z"/>
			</g>
			<path id="&lt;Path&gt;" class="s2" d="m2035.2 1785.4l-47.2 47.2h-466.8l47.3-47.2z"/>
			<g id="&lt;Group&gt;">
				<path id="&lt;Compound Path&gt;" fill-rule="evenodd" class="s2" d="m1079.2 1868h885.3l-33.8 33.8h-885.3zm877.2 3.3h-875.7l-27 27h875.7z"/>
			</g>
			<path id="&lt;Path&gt;" class="s2" d="m1944.1 1876.5l-16.9 16.8h-861.4l16.9-16.8z"/>
			<path id="&lt;Path&gt;" class="s2" d="m411.9 1945.6c7.8 0 14.2-5.9 15-13.5h227.2l60.7 60.7h335.4l60.7-60.7h819.1v-3.4h-820.4l-60.8 60.8h-332.6l-60.7-60.8h-228.6c-0.8-7.5-7.2-13.4-15-13.4-8.4 0-15.2 6.7-15.2 15.1 0 8.4 6.8 15.2 15.2 15.2z"/>
			<path id="&lt;Path&gt;" class="s2" d="m1474.6 2067.1c7.8 0 14.2-6 15-13.5h137.5l30.4-30.4h334l60.7-60.7h151.8l182.7-182.7-2.4-2.4-181.7 181.7h-151.8l-60.7 60.7h-334l-30.4 30.4h-136.1c-0.8-7.6-7.2-13.5-15-13.5-8.4 0-15.2 6.8-15.2 15.2 0 8.4 6.8 15.2 15.2 15.2z"/>
			<path id="&lt;Path&gt;" class="s2" d="m867.3 2188.5c7.9 0 14.2-5.9 15-13.5h107.2l60.7-60.7h242.9l121.5-121.5h425l30.9-30.8-2.4-2.4-29.9 29.9h-425l-121.5 121.4h-242.9l-60.7 60.8h-105.8c-0.8-7.6-7.1-13.5-15-13.5-8.3 0-15.2 6.8-15.2 15.1 0 8.4 6.9 15.2 15.2 15.2z"/>
			<path id="&lt;Path&gt;" class="s2" d="m199.3 2127.8c7.9 0 14.2-5.9 15.1-13.5h592.9l30.4-30.4h425.1l121.9-121.9-2.4-2.4-120.9 121h-425.1l-30.4 30.3h-591.5c-0.9-7.6-7.2-13.5-15.1-13.5-8.3 0-15.1 6.8-15.1 15.2 0 8.4 6.8 15.2 15.1 15.2z"/>
			<g id="&lt;Group&gt;">
				<path id="&lt;Path&gt;" class="s2" d="m2780.2 1746.6h819.8v3.3h-819.8z"/>
			</g>
			<g id="&lt;Group&gt;">
				<path id="&lt;Path&gt;" class="s2" d="m2749.8 1776.9h425.8l30.4 30.4h211.1l30.4-30.4h152.5v3.4h-151.1l-30.4 30.4h-213.9l-30.4-30.4h-424.4z"/>
			</g>
			<g id="&lt;Group&gt;">
				<path id="&lt;Path&gt;" class="s2" d="m3052.8 1625.1h274.6l30.4 30.4h242.2v3.4h-243.6l-30.4-30.4h-271.8l-30.4 30.4h-212.5l-121.5 121.4h-91.1l-29.8 29.9-2.4-2.4 30.8-30.9h91.1l121.5-121.4h212.5z"/>
			</g>
			<path id="&lt;Path&gt;" class="s2" d="m1505 2188.5c7.8 0 14.1-5.9 15-13.5h228.6l121.4-121.4h728.7l242.9-242.9h120.1l60.7 60.7h577.6v-3.4h-576.2l-60.7-60.7h-122.9l-242.9 242.9h-728.7l-121.4 121.5h-227.2c-0.9-7.6-7.2-13.5-15-13.5-8.4 0-15.2 6.8-15.2 15.1 0 8.4 6.8 15.2 15.2 15.2z"/>
			<path id="&lt;Path&gt;" class="s2" d="m1960.4 2249.2c7.8 0 14.2-5.9 15-13.4h198.2l121.5-121.5h150.4l60.7 60.7h274.7l182.2-182.2h636.9v-3.3h-638.3l-182.2 182.2h-271.9l-60.7-60.8h-153.2l-121.4 121.5h-196.9c-0.8-7.6-7.2-13.5-15-13.5-8.4 0-15.2 6.8-15.2 15.2 0 8.4 6.8 15.1 15.2 15.1z"/>
			<path id="&lt;Path&gt;" class="s2" d="m1383.5 1520.5c7.8 0 14.2-5.9 15-13.5h532.2l60.8-60.7h1213.1l60.2 60.2 2.4-2.3-61.2-61.2h-1215.9l-60.8 60.7h-530.8c-0.8-7.6-7.2-13.5-15-13.5-8.4 0-15.2 6.8-15.2 15.2 0 8.3 6.8 15.1 15.2 15.1z"/>
			<path id="&lt;Path&gt;" class="s2" d="m1990.8 1338.4c7.8 0 14.1-6 15-13.5h318.3l60.7 60.7h335.4l30.3-30.4h454.1l151.3 151.3 2.4-2.3-152.3-152.4h-456.9l-30.3 30.4h-332.6l-60.7-60.7h-319.7c-0.9-7.6-7.2-13.5-15-13.5-8.4 0-15.2 6.8-15.2 15.2 0 8.4 6.8 15.2 15.2 15.2z"/>
			<path id="&lt;Path&gt;" class="s2" d="m2415.8 2249.2c7.9 0 14.2-5.9 15.1-13.4h441.1l60.7-60.8h364.4l151.8-151.8h151.1v-3.4h-152.5l-151.8 151.9h-364.4l-60.7 60.7h-439.7c-0.9-7.6-7.2-13.5-15.1-13.5-8.3 0-15.1 6.8-15.1 15.2 0 8.4 6.8 15.1 15.1 15.1z"/>
			<path id="&lt;Path&gt;" class="s2" d="m2112.2 2006.3c7.8 0 14.2-5.9 15-13.5h228.6l121.5-121.4h121.4l61.2-61.2-2.3-2.4-60.3 60.2h-121.4l-121.5 121.5h-227.2c-0.8-7.6-7.2-13.5-15-13.5-8.4 0-15.2 6.8-15.2 15.2 0 8.3 6.8 15.1 15.2 15.1z"/>
			<path id="&lt;Path&gt;" class="s2" d="m2021.1 2127.8c5.3 0 9.9-2.7 12.6-6.8h112.4l30.3-30.3h455.5l182.2-182.2h785.9v-16.9h-792.9l-182.2 182.2h-455.5l-30.3 30.4h-105.4c-2.7-4.1-7.3-6.8-12.6-6.8-8.3 0-15.1 6.8-15.1 15.2 0 8.4 6.8 15.2 15.1 15.2z"/>
			<g id="&lt;Group&gt;">
				<path id="&lt;Path&gt;" class="s2" d="m2870.6 1928.7h729.4v3.4h-728l-60.7 60.7h-91.8v-3.3h90.4z"/>
			</g>
			<path id="&lt;Path&gt;" class="s2" d="m1019.1 1581.3c7.9 0 14.2-6 15.1-13.5h773.7l30.3 30.3h182.9v-3.3h-181.5l-30.3-30.4h-775.1c-0.9-7.6-7.2-13.5-15.1-13.5-8.3 0-15.1 6.8-15.1 15.2 0 8.4 6.8 15.2 15.1 15.2z"/>
			<path id="&lt;Path&gt;" class="s2" d="m2719.5 2310c5.2 0 9.9-2.7 12.6-6.8h203.4l91.1-91.1h303.6l91.1-91.1h178.7v-16.8h-185.7l-91 91.1h-303.7l-91.1 91.1h-196.4c-2.7-4.1-7.4-6.8-12.6-6.8-8.4 0-15.2 6.8-15.2 15.2 0 8.4 6.8 15.2 15.2 15.2z"/>
			<path id="&lt;Path&gt;" class="s2" d="m2840.9 2370.7c7.8 0 14.2-5.9 15.1-13.5h137.4l60.8-60.7h60.7l60.7-60.7h424.4v-3.4h-425.8l-60.7 60.7h-60.7l-60.7 60.7h-136.1c-0.9-7.6-7.3-13.5-15.1-13.5-8.4 0-15.1 6.8-15.1 15.2 0 8.4 6.7 15.2 15.1 15.2z"/>
		</g>
		<g id="&lt;Group&gt;" style="opacity: .2">
			<g id="&lt;Group&gt;">
				<path id="&lt;Compound Path&gt;" fill-rule="evenodd" class="s2" d="m1002.7 974h-35.2l124.9-124.9h35.1zm-27-3.3h25.6l118.1-118.1h-25.6z"/>
			</g>
			<path id="&lt;Path&gt;" class="s2" d="m987.9 965.5l107.9-107.9h11.3l-107.9 107.9z"/>
			<g id="&lt;Group&gt;">
				<path id="&lt;Compound Path&gt;" fill-rule="evenodd" class="s2" d="m1488.5 974h-35.1l124.8-124.9h35.1zm-27-3.3h25.6l118.1-118.1h-25.6z"/>
			</g>
			<path id="&lt;Path&gt;" class="s2" d="m1473.7 965.5l108-107.9h11.2l-107.9 107.9z"/>
			<g id="&lt;Group&gt;">
				<path id="&lt;Compound Path&gt;" fill-rule="evenodd" class="s2" d="m1427.7 974h-399.4l124.8-124.9h399.5zm-391.4-3.3h390l118.1-118.1h-390z"/>
			</g>
			<path id="&lt;Path&gt;" class="s2" d="m1048.6 965.5l108-107.9h375.6l-107.9 107.9z"/>
			<g id="&lt;Group&gt;">
				<path id="&lt;Compound Path&gt;" fill-rule="evenodd" class="s2" d="m941.9 974h-35.1l124.8-124.9h35.2zm-27-3.3h25.6l118.1-118.1h-25.6z"/>
			</g>
			<path id="&lt;Path&gt;" class="s2" d="m927.2 965.5l107.9-107.9h11.3l-107.9 107.9z"/>
			<g id="&lt;Group&gt;">
				<path id="&lt;Compound Path&gt;" fill-rule="evenodd" class="s2" d="m638.3 488.2h-35.1l124.8-124.9h35.1zm-27-3.3h25.6l118.1-118.1h-25.6z"/>
			</g>
			<path id="&lt;Path&gt;" class="s2" d="m623.5 479.7l108-107.9h11.3l-108 107.9z"/>
			<g id="&lt;Group&gt;">
				<path id="&lt;Compound Path&gt;" fill-rule="evenodd" class="s2" d="m577.6 488.2h-35.1l124.8-124.9h35.1zm-27-3.3h25.6l118.1-118.1h-25.6z"/>
			</g>
			<path id="&lt;Path&gt;" class="s2" d="m562.8 479.7l108-107.9h11.3l-108 107.9z"/>
			<g id="&lt;Group&gt;">
				<path id="&lt;Compound Path&gt;" fill-rule="evenodd" class="s2" d="m516.9 488.2h-35.2l124.9-124.9h35.1zm-27-3.3h25.6l118.1-118.1h-25.6z"/>
			</g>
			<path id="&lt;Path&gt;" class="s2" d="m502.1 479.7l107.9-107.9h11.3l-107.9 107.9z"/>
			<g id="&lt;Group&gt;">
				<path id="&lt;Compound Path&gt;" fill-rule="evenodd" class="s2" d="m456.1 488.2h-35.1l124.8-124.9h35.2zm-27-3.3h25.6l118.1-118.1h-25.6z"/>
			</g>
			<path id="&lt;Path&gt;" class="s2" d="m441.4 479.7l107.9-107.9h11.3l-108 107.9z"/>
			<g id="&lt;Group&gt;">
				<path id="&lt;Compound Path&gt;" fill-rule="evenodd" class="s2" d="m395.4 488.2h-35.1l124.8-124.9h35.1zm-26.9-3.3h25.5l118.1-118.1h-25.6z"/>
			</g>
			<path id="&lt;Path&gt;" class="s2" d="m380.7 479.7l107.9-107.9h11.3l-108 107.9z"/>
			<g id="&lt;Group&gt;">
				<path id="&lt;Compound Path&gt;" fill-rule="evenodd" class="s2" d="m334.7 488.2h-35.1l124.8-124.9h35.1zm-27-3.3h25.6l118.1-118.1h-25.6z"/>
			</g>
			<path id="&lt;Path&gt;" class="s2" d="m319.9 479.7l108-107.9h11.2l-107.9 107.9z"/>
			<g id="&lt;Group&gt;">
				<path id="&lt;Compound Path&gt;" fill-rule="evenodd" class="s2" d="m274 488.2h-35.2l124.9-124.9h35.1zm-27-3.3h25.6l118.1-118.1h-25.6z"/>
			</g>
			<path id="&lt;Path&gt;" class="s2" d="m259.2 479.7l108-107.9h11.2l-107.9 107.9z"/>
			<g id="&lt;Group&gt;">
				<path id="&lt;Compound Path&gt;" fill-rule="evenodd" class="s2" d="m213.2 488.2h-35.1l124.8-124.9h35.2zm-27-3.3h25.6l118-118.1h-25.5z"/>
			</g>
			<path id="&lt;Path&gt;" class="s2" d="m198.5 479.7l107.9-107.9h11.3l-108 107.9z"/>
			<g id="&lt;Group&gt;">
				<path id="&lt;Compound Path&gt;" fill-rule="evenodd" class="s2" d="m1215.2 700.7h-35.1l124.8-124.8h35.1zm-26.9-3.4h25.5l118.1-118.1h-25.6z"/>
			</g>
			<path id="&lt;Path&gt;" class="s2" d="m1200.4 692.3l108-108h11.3l-108 108z"/>
			<g id="&lt;Group&gt;">
				<path id="&lt;Compound Path&gt;" fill-rule="evenodd" class="s2" d="m1154.5 700.7h-35.1l124.8-124.8h35.1zm-27-3.4h25.6l118.1-118.1h-25.6z"/>
			</g>
			<path id="&lt;Path&gt;" class="s2" d="m1139.7 692.3l108-108h11.2l-107.9 108z"/>
			<g id="&lt;Group&gt;">
				<path id="&lt;Compound Path&gt;" fill-rule="evenodd" class="s2" d="m881.2 974h-95.8l124.8-124.9h95.8zm-87.7-3.3h86.4l118-118.1h-86.3z"/>
			</g>
			<path id="&lt;Path&gt;" class="s2" d="m805.7 965.5l108-107.9h72l-108 107.9z"/>
			<g id="&lt;Group&gt;">
				<path id="&lt;Compound Path&gt;" fill-rule="evenodd" class="s2" d="m1518.8 700.7h-35.1l124.8-124.8h35.2zm-27-3.4h25.6l118-118.1h-25.5z"/>
			</g>
			<path id="&lt;Path&gt;" class="s2" d="m1504.1 692.3l107.9-108h11.3l-108 108z"/>
			<g id="&lt;Group&gt;">
				<path id="&lt;Compound Path&gt;" fill-rule="evenodd" class="s2" d="m1458.1 700.7h-35.1l124.8-124.8h35.2zm-27-3.4h25.5l118.1-118.1h-25.6z"/>
			</g>
			<path id="&lt;Path&gt;" class="s2" d="m1443.3 692.3l108-108h11.3l-108 108z"/>
			<g id="&lt;Group&gt;">
				<path id="&lt;Compound Path&gt;" fill-rule="evenodd" class="s2" d="m1397.4 700.7h-95.9l124.9-124.8h95.8zm-87.7-3.4h86.3l118.1-118.1h-86.3z"/>
			</g>
			<path id="&lt;Path&gt;" class="s2" d="m1321.9 692.3l107.9-108h72l-107.9 108z"/>
			<path id="&lt;Path&gt;" class="s2" d="m2398.7 774.9c-5.3 0-9.9 2.7-12.7 6.8h-294.5l-60.7 60.7h-394.7l-151.8 151.8h-1484.3v16.9h1491.3l151.8-151.8h394.7l60.7-60.8h287.5c2.8 4.1 7.4 6.8 12.7 6.8 8.3 0 15.2-6.8 15.2-15.2 0-8.4-6.9-15.2-15.2-15.2z"/>
			<path id="&lt;Path&gt;" class="s2" d="m2702.3 623.1c-7.8 0-14.2 5.9-15 13.5h-107.2l-60.7 60.7h-394.7l-121.5 121.5h-1093l-151.8 151.8h-758.4v3.4h759.8l151.8-151.8h1093l121.5-121.5h394.7l60.8-60.7h105.7c0.8 7.6 7.2 13.5 15 13.5 8.4 0 15.2-6.8 15.2-15.2 0-8.4-6.8-15.2-15.2-15.2z"/>
			<path id="&lt;Path&gt;" class="s2" d="m2823.7 562.4c-7.8 0-14.1 5.9-15 13.5h-137.5l-30.3 30.3h-60.8l-60.7 60.8h-394.7l-121.5 121.4h-1093l-151.8 151.8h-758.4v3.4h759.8l151.8-151.8h1093l121.5-121.5h394.7l60.8-60.7h60.7l30.3-30.4h136.1c0.9 7.6 7.2 13.5 15 13.5 8.4 0 15.2-6.7 15.2-15.1 0-8.4-6.8-15.2-15.2-15.2z"/>
			<path id="&lt;Path&gt;" class="s2" d="m3036.3 471.3c-5.3 0-9.9 2.7-12.6 6.7h-689.3l-60.7 60.8h-576.9l-182.1 182.1h-418.2l-30.3-30.3h-189.2l-121.4 121.4h-755.6v16.9h762.6l121.4-121.5h175.2l30.4 30.4h432l182.2-182.2h576.9l60.7-60.7h682.3c2.7 4.1 7.3 6.8 12.6 6.8 8.4 0 15.2-6.8 15.2-15.2 0-8.4-6.8-15.2-15.2-15.2z"/>
			<g id="&lt;Group&gt;">
				<path id="&lt;Compound Path&gt;" fill-rule="evenodd" class="s2" d="m2035 731.1h-490.6l64.1-64.1h490.6zm-482.4-3.4h481l57.4-57.4h-481.1z"/>
			</g>
			<path id="&lt;Path&gt;" class="s2" d="m1564.8 722.6l47.2-47.2h466.8l-47.3 47.2z"/>
			<g id="&lt;Group&gt;">
				<path id="&lt;Compound Path&gt;" fill-rule="evenodd" class="s2" d="m2520.8 640h-885.3l33.8-33.8h885.3zm-877.2-3.3h875.7l27-27h-875.7z"/>
			</g>
			<path id="&lt;Path&gt;" class="s2" d="m1655.9 631.5l16.9-16.8h861.4l-16.9 16.8z"/>
			<path id="&lt;Path&gt;" class="s2" d="m3188.1 562.4c-7.8 0-14.2 5.9-15 13.5h-227.2l-60.7-60.7h-335.4l-60.7 60.7h-819.1v3.3h820.4l60.8-60.7h332.6l60.7 60.7h228.6c0.8 7.6 7.2 13.5 15 13.5 8.4 0 15.2-6.7 15.2-15.1 0-8.4-6.8-15.2-15.2-15.2z"/>
			<path id="&lt;Path&gt;" class="s2" d="m2125.4 440.9c-7.8 0-14.2 5.9-15 13.5h-137.5l-30.4 30.4h-334l-60.7 60.7h-151.8l-182.7 182.7 2.4 2.4 181.7-181.7h151.8l60.7-60.7h334l30.4-30.4h136.1c0.8 7.6 7.2 13.5 15 13.5 8.4 0 15.2-6.8 15.2-15.2 0-8.4-6.8-15.2-15.2-15.2z"/>
			<path id="&lt;Path&gt;" class="s2" d="m2732.7 319.5c-7.9 0-14.2 5.9-15 13.5h-107.2l-60.7 60.7h-242.9l-121.5 121.5h-425l-30.9 30.8 2.4 2.4 29.9-29.9h425l121.5-121.4h242.9l60.7-60.8h105.8c0.8 7.6 7.1 13.5 15 13.5 8.3 0 15.2-6.8 15.2-15.1 0-8.4-6.9-15.2-15.2-15.2z"/>
			<path id="&lt;Path&gt;" class="s2" d="m3400.7 380.2c-7.9 0-14.2 5.9-15.1 13.5h-592.9l-30.4 30.4h-425.1l-121.9 121.9 2.4 2.4 120.9-121h425.1l30.4-30.3h591.5c0.9 7.6 7.2 13.5 15.1 13.5 8.3 0 15.1-6.8 15.1-15.2 0-8.4-6.8-15.2-15.1-15.2z"/>
			<g id="&lt;Group&gt;">
				<path id="&lt;Path&gt;" class="s2" d="m819.8 761.4h-819.8v-3.3h819.8z"/>
			</g>
			<g id="&lt;Group&gt;">
				<path id="&lt;Path&gt;" class="s2" d="m850.2 731.1h-425.8l-30.4-30.4h-211.1l-30.4 30.4h-152.5v-3.4h151.1l30.4-30.4h213.9l30.4 30.4h424.4z"/>
			</g>
			<g id="&lt;Group&gt;">
				<path id="&lt;Path&gt;" class="s2" d="m547.2 882.9h-274.6l-30.4-30.4h-242.2v-3.4h243.6l30.4 30.4h271.8l30.4-30.4h212.5l121.5-121.4h91.1l29.8-29.9 2.4 2.4-30.8 30.9h-91.1l-121.5 121.4h-212.5z"/>
			</g>
			<path id="&lt;Path&gt;" class="s2" d="m2095 319.5c-7.8 0-14.1 5.9-15 13.5h-228.6l-121.4 121.4h-728.7l-242.9 242.9h-120.1l-60.7-60.7h-577.6v3.4h576.2l60.7 60.7h122.9l242.9-242.9h728.7l121.4-121.5h227.2c0.9 7.6 7.2 13.5 15 13.5 8.4 0 15.2-6.8 15.2-15.1 0-8.4-6.8-15.2-15.2-15.2z"/>
			<path id="&lt;Path&gt;" class="s2" d="m1639.6 258.7c-7.8 0-14.2 6-15 13.5h-198.2l-121.5 121.5h-150.4l-60.7-60.7h-274.7l-182.2 182.2h-636.9v3.3h638.3l182.2-182.2h271.9l60.7 60.8h153.2l121.4-121.5h196.9c0.8 7.6 7.2 13.5 15 13.5 8.4 0 15.2-6.8 15.2-15.2 0-8.4-6.8-15.2-15.2-15.2z"/>
			<path id="&lt;Path&gt;" class="s2" d="m2216.5 987.5c-7.8 0-14.2 5.9-15 13.5h-532.2l-60.8 60.7h-1213.1l-60.2-60.2-2.4 2.3 61.2 61.2h1215.9l60.8-60.7h530.8c0.8 7.6 7.2 13.5 15 13.5 8.4 0 15.2-6.8 15.2-15.2 0-8.3-6.8-15.1-15.2-15.1z"/>
			<path id="&lt;Path&gt;" class="s2" d="m1609.2 1169.6c-7.8 0-14.1 6-15 13.5h-318.3l-60.7-60.7h-335.4l-30.3 30.4h-454.1l-151.3-151.3-2.4 2.3 152.3 152.4h456.9l30.3-30.4h332.6l60.7 60.7h319.7c0.9 7.6 7.2 13.5 15 13.5 8.4 0 15.2-6.8 15.2-15.2 0-8.4-6.8-15.2-15.2-15.2z"/>
			<path id="&lt;Path&gt;" class="s2" d="m1184.2 258.7c-7.9 0-14.2 6-15.1 13.5h-441.1l-60.7 60.8h-364.4l-151.8 151.8h-151.1v3.4h152.5l151.8-151.9h364.4l60.7-60.7h439.7c0.9 7.6 7.2 13.5 15.1 13.5 8.3 0 15.1-6.8 15.1-15.2 0-8.4-6.8-15.2-15.1-15.2z"/>
			<path id="&lt;Path&gt;" class="s2" d="m1487.8 501.7c-7.8 0-14.2 5.9-15 13.5h-228.6l-121.5 121.4h-121.4l-61.2 61.2 2.3 2.4 60.3-60.2h121.4l121.5-121.5h227.2c0.8 7.6 7.2 13.5 15 13.5 8.4 0 15.2-6.8 15.2-15.2 0-8.4-6.8-15.1-15.2-15.1z"/>
			<path id="&lt;Path&gt;" class="s2" d="m1578.9 380.2c-5.3 0-9.9 2.7-12.6 6.7h-112.4l-30.3 30.4h-455.5l-182.2 182.2h-785.9v16.9h792.9l182.2-182.2h455.5l30.3-30.4h105.4c2.7 4.1 7.3 6.8 12.6 6.8 8.3 0 15.1-6.8 15.1-15.2 0-8.4-6.8-15.2-15.1-15.2z"/>
			<g id="&lt;Group&gt;">
				<path id="&lt;Path&gt;" class="s2" d="m729.4 579.2h-729.4v-3.3h728l60.7-60.7h91.8v3.3h-90.4z"/>
			</g>
			<path id="&lt;Path&gt;" class="s2" d="m2580.9 926.7c-7.9 0-14.2 5.9-15.1 13.5h-773.7l-30.3-30.3h-182.9v3.3h181.5l30.3 30.4h775.1c0.9 7.6 7.2 13.5 15.1 13.5 8.3 0 15.1-6.8 15.1-15.2 0-8.4-6.8-15.2-15.1-15.2z"/>
			<path id="&lt;Path&gt;" class="s2" d="m880.5 198c-5.2 0-9.9 2.7-12.6 6.8h-203.4l-91.1 91.1h-303.6l-91.1 91h-178.7v16.9h185.7l91-91.1h303.7l91.1-91.1h196.4c2.7 4.1 7.4 6.8 12.6 6.8 8.4 0 15.2-6.8 15.2-15.2 0-8.4-6.8-15.2-15.2-15.2z"/>
			<path id="&lt;Path&gt;" class="s2" d="m759.1 137.3c-7.8 0-14.2 5.9-15.1 13.5h-137.4l-60.8 60.7h-60.7l-60.7 60.7h-424.4v3.4h425.8l60.7-60.7h60.7l60.7-60.7h136.1c0.9 7.6 7.3 13.5 15.1 13.5 8.4 0 15.1-6.8 15.1-15.2 0-8.4-6.7-15.2-15.1-15.2z"/>
		</g>
		<path id="&lt;Path&gt;" class="s3" d="m3600 2400h-3600v-2400h3600z"/>
	</g>
</svg>