<svg version="1.2" xmlns="http://www.w3.org/2000/svg" viewBox="0 0 1024 1024" width="1024" height="1024">
	<title>card</title>
	<style>
		.s0 { fill: #b381de } 
		.s1 { fill: #e4ecf9 } 
		.s2 { fill: #a740ff } 
		.s3 { fill: #491674 } 
		.s4 { fill: #6622a0 } 
		.s5 { fill: #ffffff } 
		.s6 { fill: #161691 } 
		.s7 { fill: #222288 } 
		.s8 { fill: #212185 } 
		.s9 { fill: #3737db } 
		.s10 { fill: #3333cc } 
		.s11 { fill: #3232c7 } 
		.s12 { fill: #3131c2 } 
		.s13 { fill: #2f2fbd } 
		.s14 { fill: #2e2eb8 } 
		.s15 { fill: #2d2db3 } 
		.s16 { fill: #2c2cad } 
		.s17 { fill: #2a2aa8 } 
		.s18 { fill: #2929a3 } 
		.s19 { fill: #28289e } 
		.s20 { fill: #23238a } 
		.s21 { fill: #24248f } 
		.s22 { fill: #252594 } 
		.s23 { fill: #262699 } 
		.s24 { fill: #acc5ea } 
		.s25 { fill: #c68620 } 
		.s26 { fill: #ffcd2e } 
		.s27 { fill: #858585 } 
		.s28 { fill: #e8cfac } 
	</style>
	<path class="s0" d="m905.8 598.4c-1.1 11-11.2 16.5-19.8 21.5-8 4.6-16 9.3-23.9 13.9-12.8 7.4-25.5 14.8-38.3 22.2-16 9.3-31.9 18.6-47.9 27.8-17.6 10.2-35.2 20.5-52.9 30.7-17.7 10.3-35.4 20.6-53.2 30.9-16.3 9.5-32.5 18.9-48.8 28.4-13.3 7.7-26.5 15.4-39.8 23.1-8.7 5-17.4 10.1-26.1 15.1-6.6 3.8-12.8 7.6-20.3 9.8-19.5 5.6-41.1 3.7-58.7-6.5-6.3-3.7-12.7-7.3-19-11-11.6-6.7-23.1-13.3-34.7-20-15.2-8.8-30.4-17.6-45.6-26.3-17.3-10-34.7-20-52-30-17.9-10.3-35.8-20.7-53.7-31-16.9-9.8-33.8-19.5-50.8-29.3l-43.2-24.9c-10.3-6-20.7-11.9-31-17.9-4.7-2.7-9.4-5.4-14.1-8.2-7.4-4.3-14.7-11.1-14.7-20.3 0 8.4 0 16.8-0.1 25.3 0 3-0.2 6.1 0 9.2 0.6 8.1 7 14.4 13.7 18.4 4.1 2.5 8.3 4.8 12.5 7.2 10.8 6.2 21.6 12.5 32.4 18.7 15.6 9 31.1 18 46.7 27 18.5 10.7 37.1 21.4 55.6 32.1 19.3 11.2 38.6 22.3 58 33.5 18.4 10.6 36.7 21.2 55.1 31.8 15.3 8.8 30.5 17.6 45.8 26.4 10.3 6 20.7 11.9 31 17.9 6 3.4 11.9 7.3 18.4 9.7 20.3 7.4 44.1 5.8 62.8-5.1 7.1-4.1 14.2-8.3 21.3-12.4 13.1-7.6 26.2-15.2 39.2-22.8 17.1-9.9 34.1-19.8 51.2-29.8 19.1-11.1 38.2-22.2 57.2-33.3l57.3-33.3c17.1-10 34.2-19.9 51.4-29.9 13.3-7.7 26.6-15.4 39.9-23.2 7.3-4.3 14.7-8.5 22-12.8 2.2-1.3 4.5-2.6 6.6-4.1 5.6-4.2 10-10 10.1-17.3 0.1-3.7 0-7.3 0-11 0-7.3 0-14.7 0.1-22 0.4 0.8 0.4 1.3 0.3 1.8 0 0.3 0-0.2 0 0z"/>
	<path class="s1" d="m891.6 576.9c19 11 19.1 28.9 0.2 39.9l-344.4 200.1c-18.9 11-49.8 11-68.8 0l-346.7-200.1c-19-11-19.1-28.9-0.2-39.9l344.4-200.2c18.9-11 49.8-11 68.8 0z"/>
	<path class="s2" d="m521.3 174c9.5-5.5 17.3-1 17.4 9.9l1 345.8c0 10.9-7.7 24.4-17.2 29.9l-176.5 101.8c-9.5 5.5-17.3 1-17.4-9.9l-1-345.8c0-10.9 7.7-24.4 17.3-29.9z"/>
	<path class="s3" d="m505.5 220.3c3.3-1.9 6-0.4 6 3.4l0.7 246.6c0 3.8-2.7 8.5-6 10.4l-144.4 83.4c-3.3 1.9-6 0.4-6-3.4l-0.8-246.6c0-3.8 2.7-8.5 6-10.4z"/>
	<path class="s4" d="m525.3 172.3c0.3-0.1 0.5-0.2 0.8-0.2 0.2-0.1 0.5-0.1 0.7-0.2 0.3-0.1 0.6-0.1 0.9-0.1 0.2 0 0.3 0 0.5-0.1h1.3c0.4 0 0.9 0.1 1.3 0.2 0.1 0 0.2 0 0.3 0.1 0.3 0.1 0.6 0.2 1 0.3 0.1 0 0.2 0.1 0.3 0.1 0.4 0.2 0.8 0.3 1.1 0.5l-14.8-8.6c0 0-0.1 0-0.1-0.1-0.3-0.2-0.6-0.3-0.9-0.4-0.1 0-0.1 0-0.2-0.1-0.1 0-0.2-0.1-0.3-0.1-0.2-0.1-0.3-0.1-0.5-0.2-0.2 0-0.3-0.1-0.5-0.1-0.1 0-0.2-0.1-0.3-0.1h-0.2c-0.3-0.1-0.7-0.1-1.1-0.1h-1.5c-0.2 0-0.3 0-0.5 0.1-0.2 0-0.3 0-0.5 0.1-0.1 0-0.3 0.1-0.4 0.1-0.2 0-0.5 0.1-0.7 0.2-0.1 0-0.3 0-0.4 0.1-0.1 0-0.3 0.1-0.4 0.1-0.4 0.1-0.8 0.3-1.2 0.4-0.1 0.1-0.3 0.1-0.4 0.2-0.1 0-0.2 0.1-0.2 0.1-0.7 0.3-1.4 0.6-2.1 1.1l-176.2 101.7c-0.6 0.3-1.1 0.7-1.6 1-0.2 0.1-0.3 0.3-0.5 0.4-0.4 0.3-0.7 0.5-1.1 0.8-0.2 0.2-0.4 0.3-0.6 0.5-0.3 0.3-0.7 0.6-1 0.9-0.2 0.2-0.4 0.4-0.6 0.5-0.1 0.1-0.2 0.2-0.4 0.3-0.1 0.1-0.2 0.3-0.4 0.4l-1.2 1.2c-0.1 0.1-0.2 0.3-0.4 0.4-0.1 0.1-0.2 0.2-0.3 0.4-0.2 0.3-0.5 0.5-0.7 0.8-0.1 0.2-0.3 0.3-0.4 0.5-0.1 0.2-0.2 0.3-0.3 0.5-0.2 0.2-0.3 0.4-0.5 0.7-0.1 0.1-0.2 0.3-0.3 0.4-0.2 0.3-0.4 0.5-0.5 0.8-0.1 0.2-0.2 0.3-0.3 0.5 0 0.1-0.1 0.1-0.1 0.2l-0.9 1.5c0 0 0 0.1-0.1 0.1-0.1 0.1-0.1 0.2-0.2 0.3-0.2 0.4-0.4 0.7-0.6 1.1-0.1 0.2-0.2 0.3-0.2 0.5-0.1 0.2-0.2 0.4-0.3 0.5-0.1 0.2-0.2 0.3-0.2 0.5-0.2 0.4-0.4 0.8-0.5 1.2 0 0.1-0.1 0.2-0.1 0.3v0.1c-0.2 0.5-0.4 1-0.6 1.6 0 0.1-0.1 0.2-0.1 0.3-0.1 0.2-0.1 0.4-0.2 0.6-0.1 0.3-0.2 0.5-0.3 0.8-0.1 0.2-0.1 0.4-0.2 0.6-0.1 0.2-0.1 0.5-0.2 0.7 0 0.2-0.1 0.3-0.1 0.5-0.1 0.3-0.1 0.5-0.2 0.8-0.1 0.3-0.2 0.6-0.2 0.9 0 0.1-0.1 0.2-0.1 0.3 0 0.2-0.1 0.4-0.1 0.6-0.1 0.5-0.2 0.9-0.2 1.4 0 0.1-0.1 0.3-0.1 0.4 0 0.3-0.1 0.6-0.1 0.8 0 0.2 0 0.4-0.1 0.6 0 0.6-0.1 1.3-0.1 1.9l1 345.8c0 4.8 1.5 8.3 4 10.3 0.4 0.3 0.7 0.5 1.1 0.8l14.8 8.6c-3.1-1.8-5.1-5.6-5.1-11.1l-1-345.8c0-0.6 0-1.3 0.1-1.9 0-0.2 0-0.4 0.1-0.6 0-0.4 0.1-0.8 0.2-1.2 0.1-0.4 0.1-0.9 0.2-1.4 0.1-0.3 0.1-0.6 0.2-1 0.1-0.3 0.1-0.6 0.2-0.9l0.3-1.2c0.1-0.2 0.1-0.5 0.2-0.7 0.1-0.5 0.3-0.9 0.5-1.4 0.1-0.2 0.1-0.4 0.2-0.6 0.2-0.6 0.5-1.3 0.8-1.9 0-0.1 0.1-0.2 0.1-0.3 0.2-0.6 0.5-1.1 0.8-1.6 0.1-0.2 0.2-0.3 0.3-0.5 0.3-0.5 0.6-1.1 0.8-1.6 0.1-0.1 0.1-0.2 0.2-0.3 0.3-0.6 0.7-1.2 1.1-1.8 0.1-0.2 0.2-0.3 0.3-0.5l0.9-1.2c0.2-0.2 0.3-0.4 0.5-0.7 0.3-0.3 0.5-0.7 0.8-1 0.2-0.3 0.4-0.6 0.7-0.8 0.2-0.3 0.4-0.5 0.7-0.8 0.4-0.4 0.8-0.8 1.1-1.2l0.7-0.7c0.2-0.2 0.4-0.4 0.6-0.5 0.3-0.3 0.7-0.6 1-0.9 0.2-0.2 0.4-0.3 0.6-0.5 0.4-0.3 0.7-0.6 1.1-0.8 0.2-0.1 0.3-0.3 0.5-0.4 0.5-0.4 1.1-0.7 1.6-1l176.2-102.1c0.7-0.4 1.4-0.8 2.2-1.1 0.2-0.1 0.5-0.2 0.7-0.3 0.3-0.1 0.7-0.2 1.1-0.3z"/>
	<path class="s5" d="m444.1 539.6c10.9-6.3 19.7-1.2 19.8 11.3 0.1 12.5-8.8 27.7-19.6 34-10.9 6.3-19.7 1.2-19.7-11.3-0.2-12.5 8.6-27.7 19.5-34z"/>
	<path class="s6" d="m456.5 382.9l-22.4 12.9v12l22.4-12.9c2.9-1.7 5.2-5.7 5.2-9 0-3.3-2.3-4.6-5.2-3z"/>
	<path class="s6" d="m434.1 370.2v7.7l22.4-12.9c2.9-1.7 5.2-5.7 5.2-9 0-3.3-2.3-4.6-5.2-3l-19 11 17.4-30.2c2-3.5 2-7.3 0-8.5-1-0.6-2.4-0.4-3.7 0.4-1.3 0.8-2.7 2.1-3.7 3.9l-18.6 32.2-18.7-10.7c-1-0.6-2.4-0.4-3.7 0.4-1.3 0.8-2.7 2.1-3.7 3.9-2 3.5-2 7.3 0 8.5l17.5 10-19 11c-2.9 1.7-5.2 5.7-5.2 9 0 3.3 2.4 4.6 5.2 3l22.3-12.9 0.1 18v12l0.1 19.7c0 3.3 2.4 4.6 5.2 3 2.9-1.7 5.2-5.7 5.2-9l-0.1-19.7v-12l-0.1-18zm-10.4 6c0-1.7 0.6-3.5 1.5-5.1-1 1.6-1.5 3.4-1.5 5.1zm8.9-9.4c0.7 0.4 1.2 1.2 1.4 2.2-0.2-1-0.7-1.8-1.4-2.2z"/>
	<path class="s6" d="m401.4 414.7c-2.9 1.7-5.2 5.7-5.2 9 0 3.3 2.4 4.6 5.2 3l22.3-12.9v-12z"/>
	<path class="s7" d="m450 420.4l-13.8-8v-12l13.8 8zm-10.4 6l-13.8-8v-12l13.7 8.1zm10.3-35.9l-13.8-8v-7.8l13.8 8.1z"/>
	<path class="s8" d="m449.9 382.8l-13.8-8c0-1.7-0.6-2.8-1.5-3.4l13.8 8c0.9 0.5 1.5 1.7 1.5 3.4z"/>
	<path class="s9" d="m449 379l-13.8-8 4.2-2.4 13.8 8z"/>
	<path class="s8" d="m449.9 382.8l-13.8-8c0-1.7-0.6-2.8-1.5-3.4l13.8 8c0.9 0.5 1.5 1.7 1.5 3.4z"/>
	<path class="s9" d="m448.4 379.4l-13.8-8 0.6-0.4 13.8 8z"/>
	<path class="s8" d="m449 379l-13.8-8c-0.1-1.4-0.6-2.5-1.5-3l13.8 8c0.9 0.6 1.4 1.7 1.5 3z"/>
	<path class="s7" d="m439.5 396.5l-13.8-8v-7.7l13.8 8z"/>
	<path class="s10" d="m444.7 379.8l-13.8-8c0.2-0.1 0.5-0.3 0.7-0.4l13.8 8c-0.2 0.1-0.5 0.2-0.7 0.4z"/>
	<path class="s11" d="m445.4 379.4l-13.8-8c0.2-0.1 0.4-0.2 0.6-0.2l13.8 8c-0.2 0.1-0.4 0.1-0.6 0.2z"/>
	<path class="s12" d="m446 379.2l-13.8-8c0.2 0 0.3-0.1 0.5-0.1l13.8 8c-0.2 0-0.3 0.1-0.5 0.1z"/>
	<path class="s13" d="m446.5 379.1l-13.8-8h0.4l13.8 8z"/>
	<path class="s14" d="m446.9 379.1l-13.8-8h0.3l13.8 8z"/>
	<path class="s15" d="m447.2 379.1l-13.8-8h0.3l13.8 8z"/>
	<path class="s16" d="m447.5 379.1l-13.8-8c0.1 0 0.2 0 0.3 0.1l13.8 8c-0.1-0.1-0.2-0.1-0.3-0.1z"/>
	<path class="s17" d="m447.8 379.2l-13.8-8c0.1 0 0.2 0.1 0.3 0.1l13.8 8c-0.1-0.1-0.2-0.1-0.3-0.1z"/>
	<path class="s18" d="m448.1 379.3l-13.8-8c0.1 0 0.2 0.1 0.3 0.1l13.8 8c-0.1-0.1-0.2-0.1-0.3-0.1z"/>
	<path class="s19" d="m448.3 379.4l-13.8-8 13.8 8q0.2 0 0 0z"/>
	<path class="s8" d="m439.5 388.8l-13.8-8c0-0.3 0-0.7 0.1-1l13.8 8c-0.1 0.3-0.1 0.6-0.1 1z"/>
	<path class="s20" d="m439.5 387.8l-13.8-8c0-0.2 0.1-0.5 0.1-0.7l13.8 8c0 0.2 0 0.4-0.1 0.7z"/>
	<path class="s21" d="m439.7 387l-13.8-8c0-0.2 0.1-0.4 0.1-0.6l13.8 8c0 0.2-0.1 0.4-0.1 0.6z"/>
	<path class="s22" d="m439.8 386.4l-13.8-8c0-0.2 0.1-0.4 0.2-0.5l13.8 8c-0.1 0.2-0.1 0.4-0.2 0.5z"/>
	<path class="s23" d="m440 385.9l-13.8-8c0.1-0.2 0.1-0.3 0.2-0.5l13.8 8c-0.1 0.2-0.2 0.3-0.2 0.5z"/>
	<path class="s19" d="m440.2 385.4l-13.8-8c0.1-0.2 0.1-0.3 0.2-0.5l13.8 8c-0.1 0.2-0.2 0.4-0.2 0.5z"/>
	<path class="s18" d="m440.3 384.9l-13.8-8c0.1-0.2 0.1-0.3 0.2-0.5l13.8 8c0 0.2-0.1 0.4-0.2 0.5z"/>
	<path class="s17" d="m440.6 384.5l-13.8-8c0.1-0.1 0.1-0.3 0.2-0.4l13.8 8c-0.1 0.1-0.2 0.2-0.2 0.4z"/>
	<path class="s16" d="m440.8 384.1l-13.8-8c0.1-0.1 0.1-0.3 0.2-0.4l13.8 8c-0.1 0.1-0.2 0.2-0.2 0.4z"/>
	<path class="s15" d="m441 383.6l-13.8-8c0.1-0.1 0.2-0.3 0.3-0.4l13.8 8c-0.1 0.1-0.2 0.3-0.3 0.4z"/>
	<path class="s14" d="m441.3 383.2l-13.8-8c0.1-0.2 0.2-0.3 0.3-0.5l13.8 8c-0.1 0.2-0.2 0.3-0.3 0.5z"/>
	<path class="s13" d="m441.6 382.7l-13.8-8c0.1-0.2 0.2-0.3 0.3-0.5l13.8 8c-0.1 0.2-0.2 0.4-0.3 0.5z"/>
	<path class="s12" d="m441.9 382.2l-13.8-8c0.1-0.2 0.3-0.3 0.4-0.5l13.8 8c-0.1 0.2-0.2 0.4-0.4 0.5z"/>
	<path class="s11" d="m442.4 381.7l-13.8-8 0.6-0.6 13.8 8c-0.3 0.2-0.4 0.4-0.6 0.6z"/>
	<path class="s10" d="m442.9 381.1l-13.8-8c0.5-0.5 1.1-1 1.7-1.4l13.8 8c-0.5 0.4-1.1 0.9-1.7 1.4z"/>
	<path class="s19" d="m444.7 374.4l-13.8-8 2.8 1.6 13.8 8z"/>
	<path class="s9" d="m436.1 386.5l-13.8-8 4.9-2.9 13.8 8.1z"/>
	<path class="s24" d="m462.2 387.2q0-0.2 0 0c-0.1-0.1-0.2-0.1-0.3-0.1-0.1 0-0.2-0.1-0.3-0.1h-0.2-0.7-0.1-0.3c-0.1 0-0.3 0.1-0.5 0.1-0.1 0-0.1 0-0.2 0.1-0.1 0-0.1 0-0.2 0.1-0.1 0-0.2 0-0.2 0.1-0.2 0.1-0.5 0.2-0.7 0.4l-19 11v-2l-10.3-6 7-4-13.8-8-19 11c-0.3 0.2-0.7 0.4-1 0.7l-0.3 0.3c-0.2 0.1-0.3 0.3-0.5 0.4l-0.2 0.2-0.2 0.2-0.2 0.2c-0.1 0.2-0.3 0.3-0.4 0.5 0 0.1-0.1 0.1-0.1 0.2 0 0 0 0.1-0.1 0.1 0 0.1-0.1 0.1-0.1 0.2-0.1 0.1-0.2 0.3-0.3 0.5-0.1 0.1-0.2 0.3-0.3 0.4-0.1 0.1-0.1 0.3-0.2 0.4-0.1 0.1-0.2 0.3-0.2 0.4-0.1 0.1-0.1 0.3-0.2 0.4-0.1 0.2-0.1 0.3-0.2 0.5-0.1 0.2-0.1 0.3-0.2 0.5 0 0.1 0 0.2-0.1 0.2v0.1c0 0.1 0 0.1-0.1 0.2-0.1 0.2-0.1 0.4-0.1 0.6 0 0.1 0 0.2-0.1 0.4v0.4c0 0.3-0.1 0.7-0.1 1 0 1.6 0.6 2.8 1.5 3.3l13.8 8c-0.9-0.5-1.5-1.7-1.5-3.3 0-0.4 0-0.8 0.1-1.2v-0.2c0.1-0.4 0.2-0.8 0.3-1.1v-0.1c0.1-0.4 0.3-0.8 0.5-1.2l0.6-1.2c0.2-0.4 0.5-0.8 0.7-1.1 0 0 0-0.1 0.1-0.1 0.2-0.3 0.5-0.6 0.8-0.9l0.2-0.2c0.2-0.2 0.4-0.4 0.7-0.6l0.3-0.3c0.3-0.3 0.6-0.5 1-0.7l8.6-5v14l5.1 2.9-5.1-2.9-22.3 12.9c-0.3 0.2-0.7 0.4-1 0.7l-0.3 0.3c-0.2 0.1-0.3 0.3-0.5 0.4l-0.2 0.2-0.2 0.2-0.2 0.2c-0.1 0.2-0.3 0.3-0.4 0.5 0 0.1-0.1 0.1-0.1 0.2 0 0 0 0.1-0.1 0.1 0 0.1-0.1 0.1-0.1 0.2-0.1 0.1-0.2 0.3-0.3 0.5-0.1 0.1-0.2 0.3-0.3 0.4-0.1 0.1-0.1 0.2-0.2 0.4-0.1 0.1-0.2 0.3-0.2 0.4-0.1 0.1-0.1 0.3-0.2 0.4-0.1 0.2-0.1 0.3-0.2 0.5-0.1 0.2-0.1 0.3-0.2 0.5 0 0.1 0 0.2-0.1 0.2v0.1c0 0.1 0 0.1-0.1 0.2-0.1 0.2-0.1 0.4-0.1 0.6 0 0.1 0 0.2-0.1 0.4v0.4c0 0.3-0.1 0.7-0.1 1 0 1.6 0.6 2.8 1.5 3.3l13.8 8c-0.9-0.5-1.5-1.7-1.5-3.3 0-0.4 0-0.8 0.1-1.2v-0.2c0.1-0.4 0.2-0.8 0.3-1.1v-0.1c0.1-0.4 0.3-0.8 0.5-1.2l0.6-1.2c0.2-0.4 0.5-0.8 0.7-1.1 0 0 0-0.1 0.1-0.1 0.2-0.3 0.5-0.6 0.8-0.9l0.2-0.2c0.2-0.2 0.4-0.4 0.7-0.6l0.3-0.3c0.3-0.3 0.6-0.5 1-0.7l8.6-5v15.7c0 1.6 0.6 2.8 1.5 3.3l13.8 8c-0.9-0.5-1.5-1.7-1.5-3.3l-0.1-19.7-10.4-6 10.3-6v-12.1l10.5 6.1 22.4-12.9c0.3-0.2 0.6-0.3 1-0.4 0.1 0 0.1 0 0.2-0.1 0.3-0.1 0.6-0.2 0.9-0.2h0.9c0.3 0.1 0.5 0.2 0.7 0.3zm-58.7-20.7c0 0.1 0.1 0.3 0.1 0.4l0.3 0.6c0.1 0.1 0.1 0.2 0.2 0.3 0.2 0.3 0.4 0.5 0.7 0.6l13.8 8c-0.3-0.2-0.5-0.4-0.7-0.6-0.1-0.1-0.1-0.2-0.2-0.3l-0.3-0.6c0-0.1-0.1-0.3-0.1-0.4-0.1-0.2-0.1-0.5-0.1-0.8v-0.4-0.9-0.4-0.2c0.1-0.4 0.1-0.7 0.3-1.1v-0.1c0.1-0.4 0.3-0.8 0.5-1.3 0.2-0.4 0.4-0.9 0.7-1.3 0.2-0.4 0.5-0.8 0.8-1.2 0 0 0-0.1 0.1-0.1 0.3-0.3 0.5-0.6 0.8-0.9l0.2-0.2 0.6-0.6 0.3-0.3c0.3-0.2 0.6-0.5 0.9-0.6 0.3-0.2 0.6-0.3 0.9-0.4 0.1 0 0.1 0 0.2-0.1 0.3-0.1 0.6-0.2 0.8-0.2h1c0.3 0.1 0.6 0.1 0.8 0.3l18.7 10.7 1.2-2.1 7.3 4.3 19-11c0.3-0.2 0.6-0.3 1-0.4 0.1 0 0.1 0 0.2-0.1 0.3-0.1 0.6-0.2 0.9-0.2h0.9c0.3 0.1 0.5 0.2 0.8 0.3l-13.8-8c-0.1 0-0.2-0.1-0.3-0.1-0.1 0-0.2-0.1-0.3-0.1h-0.2-0.7-0.1-0.3c-0.1 0-0.3 0.1-0.5 0.1-0.1 0-0.1 0-0.2 0.1-0.1 0-0.1 0-0.2 0.1-0.1 0-0.2 0-0.2 0.1-0.2 0.1-0.5 0.2-0.7 0.4l-6.1 3.5 10.9-18.9c0.2-0.4 0.5-0.8 0.8-1.2 0 0 0-0.1 0.1-0.1 0.3-0.3 0.5-0.6 0.8-0.9l0.2-0.2 0.6-0.6 0.3-0.3c0.3-0.2 0.6-0.5 0.9-0.6 0.3-0.2 0.6-0.3 0.9-0.4 0.1 0 0.1 0 0.2-0.1 0.3-0.1 0.6-0.2 0.8-0.2h1c0.3 0.1 0.6 0.1 0.8 0.3l-13.8-8c-0.1 0-0.2-0.1-0.3-0.1-0.1 0-0.2-0.1-0.3-0.1-0.1 0-0.2 0-0.3-0.1h-0.8-0.1-0.1c-0.2 0-0.3 0.1-0.5 0.1-0.1 0-0.2 0.1-0.3 0.1-0.1 0-0.1 0-0.2 0.1-0.1 0-0.1 0-0.2 0.1-0.2 0.1-0.5 0.2-0.7 0.4l-0.9 0.6-0.3 0.3c-0.2 0.1-0.3 0.3-0.5 0.5l-0.1 0.1-0.2 0.2-0.3 0.3c-0.1 0.2-0.3 0.3-0.4 0.5l-0.1 0.1c0 0 0 0.1-0.1 0.1-0.1 0.1-0.1 0.2-0.2 0.2-0.1 0.1-0.2 0.3-0.3 0.4-0.1 0.1-0.2 0.3-0.3 0.4v0.1l-18.6 32.2-18.7-10.7c-0.1 0-0.2-0.1-0.3-0.1-0.1 0-0.2-0.1-0.3-0.1-0.1 0-0.2 0-0.3-0.1h-0.8-0.1-0.1c-0.2 0-0.3 0.1-0.5 0.1-0.1 0-0.2 0.1-0.3 0.1-0.1 0-0.1 0-0.2 0.1-0.1 0-0.1 0-0.2 0.1-0.2 0.1-0.5 0.2-0.7 0.4l-0.9 0.6-0.3 0.3c-0.2 0.1-0.3 0.3-0.5 0.4l-0.1 0.1-0.2 0.2-0.3 0.3c-0.1 0.2-0.3 0.3-0.4 0.5l-0.1 0.1c0 0 0 0.1-0.1 0.1-0.1 0.1-0.1 0.2-0.2 0.2-0.1 0.1-0.2 0.3-0.3 0.4-0.1 0.1-0.2 0.3-0.3 0.4-0.1 0.1-0.2 0.3-0.2 0.4-0.1 0.1-0.2 0.3-0.2 0.4-0.1 0.1-0.1 0.3-0.2 0.4-0.1 0.1-0.1 0.3-0.2 0.4-0.1 0.2-0.1 0.3-0.2 0.5 0 0.1-0.1 0.2-0.1 0.3v0.2c-0.1 0.2-0.1 0.4-0.1 0.6 0 0.1 0 0.3-0.1 0.4v1.9c-0.1 0.5 0 0.8 0.1 1z"/>
	<path class="s5" d="m472.3 395.5l-22.3 12.9v12l22.4-12.9c2.9-1.7 5.2-5.7 5.2-9-0.1-3.3-2.4-4.6-5.3-3z"/>
	<path class="s5" d="m449.9 382.8v7.7l22.4-12.9c2.9-1.7 5.2-5.7 5.2-9 0-3.3-2.3-4.6-5.2-3l-19 11 17.4-30.2c2-3.5 2-7.3 0-8.5-1-0.6-2.4-0.4-3.7 0.4-1.3 0.8-2.7 2.1-3.7 3.9l-18.6 32.2-18.7-10.7c-1-0.6-2.4-0.4-3.7 0.4-1.3 0.8-2.7 2.1-3.7 3.9-2 3.5-2 7.3 0 8.5l17.5 10-19 11c-2.9 1.7-5.2 5.7-5.2 9 0 3.3 2.4 4.6 5.2 3l22.3-12.9 0.1 18v12l0.1 19.7c0 3.3 2.4 4.6 5.2 3 2.9-1.7 5.2-5.7 5.2-9l-0.1-19.7v-12l-0.1-18zm-10.4 6c0-1.7 0.6-3.5 1.5-5.1-0.9 1.6-1.5 3.4-1.5 5.1zm8.9-9.4c0.7 0.4 1.2 1.2 1.4 2.2-0.2-1-0.7-1.8-1.4-2.2z"/>
	<path class="s5" d="m417.2 427.4c-2.9 1.7-5.2 5.7-5.2 9 0 3.3 2.4 4.6 5.2 3l22.3-12.9v-12z"/>
	<path class="s25" d="m660.6 452.8c-0.2-0.1-0.3-0.2-0.5-0.3l-2.4-1.2-0.6-0.3c-0.5-0.2-0.9-0.4-1.4-0.6-0.3-0.1-0.6-0.2-0.9-0.4-0.3-0.1-0.5-0.2-0.8-0.3-0.9-0.3-1.9-0.7-2.9-1h-0.2c-0.9-0.3-1.9-0.5-2.9-0.7-0.3-0.1-0.6-0.1-0.9-0.2-0.3-0.1-0.6-0.1-0.9-0.2-0.5-0.1-1.1-0.2-1.7-0.2-0.2 0-0.4-0.1-0.7-0.1-0.9-0.1-1.9-0.2-2.9-0.3h-5.7c-0.5 0-1.1 0.1-1.6 0.1-0.4 0-0.8 0-1.1 0.1-1.2 0.1-2.3 0.2-3.5 0.4h-0.1c-1.3 0.2-2.6 0.4-3.9 0.7l-1.2 0.3-2.4 0.6c-0.1 0-0.2 0.1-0.2 0.1-1.5 0.4-3.1 0.9-4.6 1.4l-0.9 0.3c-1.3 0.4-2.5 0.9-3.8 1.4-0.2 0.1-0.3 0.1-0.5 0.2-1 0.4-2.1 0.9-3.1 1.4-0.1 0.1-0.3 0.1-0.4 0.2-1.2 0.5-2.3 1.1-3.5 1.7-0.3 0.2-0.7 0.4-1 0.5-1.3 0.7-2.6 1.4-4 2.2-1.4 0.8-2.8 1.6-4.1 2.5-0.4 0.3-0.9 0.6-1.3 0.9-0.9 0.6-1.8 1.2-2.8 1.8-0.5 0.4-1 0.7-1.5 1.1-0.8 0.6-1.7 1.2-2.5 1.8l-1.5 1.2c-0.8 0.6-1.7 1.3-2.5 2-0.5 0.4-1 0.8-1.4 1.2-1 0.8-1.9 1.6-2.8 2.4-0.3 0.3-0.7 0.6-1.1 0.9-1.3 1.1-2.5 2.3-3.8 3.4-0.3 0.2-0.5 0.5-0.8 0.8-0.8 0.8-1.7 1.6-2.5 2.4l-0.4 0.4c-1.5 1.5-2.9 3-4.4 4.5-0.1 0.1-0.1 0.2-0.2 0.2-1.4 1.5-2.7 3-4 4.5l-0.4 0.4-1.5 1.8c-0.5 0.6-1.1 1.3-1.6 1.9-0.7 0.8-1.3 1.6-2 2.5-0.5 0.6-1 1.3-1.5 1.9-0.1 0.1-0.2 0.2-0.3 0.4-0.2 0.2-0.3 0.4-0.5 0.6-1.6 2.1-3.2 4.3-4.8 6.5-0.2 0.2-0.3 0.4-0.5 0.7-0.1 0.1-0.1 0.2-0.2 0.3-1.5 2.1-2.9 4.3-4.4 6.5-0.1 0.2-0.3 0.4-0.4 0.6-0.2 0.3-0.4 0.6-0.6 1-1.1 1.8-2.2 3.6-3.3 5.5-0.2 0.3-0.4 0.6-0.5 0.9-0.1 0.1-0.1 0.2-0.2 0.3-1.2 2.1-2.4 4.2-3.6 6.4-0.1 0.2-0.2 0.3-0.3 0.5-0.2 0.4-0.4 0.7-0.5 1.1-0.9 1.7-1.8 3.4-2.6 5.2-0.2 0.4-0.4 0.7-0.5 1.1-0.1 0.2-0.2 0.4-0.3 0.7-1 2.2-2.1 4.4-3 6.6 0 0.1-0.1 0.1-0.1 0.2-0.1 0.2-0.2 0.5-0.3 0.7-0.9 2-1.7 4-2.5 6-0.1 0.3-0.3 0.6-0.4 1-0.1 0.3-0.2 0.5-0.3 0.8-0.9 2.4-1.8 4.8-2.6 7.2v0.1c-0.5 1.6-1 3.2-1.5 4.7-0.1 0.4-0.3 0.9-0.4 1.3-0.3 0.9-0.5 1.8-0.8 2.7-0.1 0.3-0.1 0.6-0.2 0.9-0.2 0.7-0.4 1.5-0.6 2.2-0.3 1-0.5 2-0.7 3-0.2 0.8-0.3 1.5-0.5 2.3-0.1 0.5-0.2 1-0.4 1.6-0.1 0.4-0.1 0.7-0.2 1.1-0.2 1.1-0.4 2.3-0.6 3.4-0.1 0.8-0.3 1.6-0.4 2.3-0.2 1.2-0.4 2.3-0.5 3.5-0.1 0.5-0.2 1.1-0.2 1.6 0 0.2-0.1 0.5-0.1 0.7-0.1 0.5-0.1 1.1-0.2 1.6l-0.3 3.3c-0.1 0.6-0.1 1.1-0.1 1.7-0.1 1.1-0.1 2.2-0.2 3.3 0 0.5-0.1 1-0.1 1.5-0.1 1.6-0.1 3.2-0.1 4.7 0.1 27.1 9.7 46.2 25.1 55.2l14.8 8.6c-15.5-9-25-28.1-25.1-55.2 0-1.6 0-3.1 0.1-4.7 0-0.5 0-1 0.1-1.5 0.1-1.1 0.1-2.2 0.2-3.3 0-0.6 0.1-1.1 0.1-1.7l0.3-3.3c0.1-0.5 0.1-1.1 0.2-1.6 0.1-0.8 0.2-1.6 0.3-2.3 0.2-1.2 0.3-2.3 0.5-3.5 0.1-0.8 0.3-1.6 0.4-2.3 0.2-1.1 0.4-2.2 0.6-3.4l0.6-2.7c0.2-0.8 0.3-1.5 0.5-2.3 0.2-1 0.5-2 0.7-3 0.2-0.7 0.4-1.5 0.6-2.2 0.3-1.2 0.7-2.4 1-3.6 0.1-0.4 0.3-0.9 0.4-1.3 0.5-1.6 1-3.3 1.6-4.9 0.8-2.4 1.7-4.8 2.6-7.2 0.2-0.6 0.5-1.2 0.7-1.8 0.8-2 1.6-4 2.5-6 0.1-0.3 0.2-0.6 0.4-0.9l3-6.6c0.3-0.6 0.6-1.1 0.8-1.7 0.8-1.7 1.7-3.5 2.6-5.2 0.3-0.5 0.5-1.1 0.8-1.6 1.2-2.2 2.3-4.3 3.6-6.4 0.2-0.4 0.5-0.8 0.7-1.2 1.1-1.8 2.2-3.7 3.3-5.5 0.3-0.5 0.7-1.1 1-1.6 1.4-2.2 2.9-4.4 4.4-6.5 0.2-0.3 0.5-0.6 0.7-1 1.6-2.2 3.2-4.4 4.8-6.5 0.2-0.3 0.5-0.7 0.7-1 0.5-0.7 1-1.3 1.6-2 0.7-0.8 1.3-1.6 2-2.4 0.5-0.7 1.1-1.3 1.6-1.9 0.6-0.8 1.3-1.5 1.9-2.2 1.3-1.5 2.7-3 4.1-4.5 0.1-0.1 0.1-0.2 0.2-0.2 1.4-1.5 2.9-3 4.4-4.5 0.9-0.9 1.9-1.8 2.8-2.8 0.3-0.2 0.5-0.5 0.8-0.8 1.3-1.2 2.5-2.3 3.8-3.4 0.3-0.3 0.7-0.6 1-0.9 0.9-0.8 1.9-1.6 2.8-2.4 0.5-0.4 1-0.8 1.4-1.2 0.8-0.7 1.7-1.3 2.5-2l1.5-1.2c0.8-0.6 1.7-1.2 2.5-1.8 0.5-0.4 1-0.7 1.5-1.1 0.9-0.6 1.8-1.2 2.8-1.8 0.4-0.3 0.9-0.6 1.3-0.9 1.4-0.9 2.7-1.7 4.1-2.5 1.3-0.8 2.7-1.5 4-2.2 0.3-0.2 0.7-0.4 1-0.5 1.2-0.6 2.3-1.2 3.5-1.7 0.1-0.1 0.3-0.1 0.4-0.2 1.2-0.6 2.4-1.1 3.6-1.6 1.3-0.5 2.5-1 3.8-1.5l0.9-0.3c1.6-0.5 3.1-1 4.6-1.4 0.9-0.2 1.8-0.5 2.7-0.7 0.4-0.1 0.8-0.2 1.3-0.3 1.3-0.3 2.6-0.5 3.9-0.7h0.1c1.2-0.2 2.3-0.3 3.5-0.4 0.4 0 0.8-0.1 1.1-0.1 0.8-0.1 1.7-0.1 2.5-0.1h4.5c1.1 0.1 2.2 0.2 3.2 0.3 0.2 0 0.4 0.1 0.7 0.1 0.9 0.1 1.7 0.3 2.6 0.4 0.3 0.1 0.6 0.1 0.9 0.2 1 0.2 1.9 0.4 2.9 0.7h0.2c1 0.3 2 0.6 2.9 1 0.3 0.1 0.5 0.2 0.8 0.3 0.8 0.3 1.5 0.6 2.3 1l0.6 0.3c1 0.5 1.9 1 2.8 1.5z"/>
	<path class="s26" d="m614.2 467.4c47.5-27.4 86.2-5.4 86.4 49.2 0.2 54.6-38.3 121.2-85.8 148.6-47.5 27.4-86.2 5.4-86.3-49.2-0.1-54.6 38.1-121.1 85.7-148.6z"/>
	<path class="s25" d="m593.3 581.3c17.9-10.4 43.5-25 44.8-25.8 3.4-2 6.2-0.1 6.2 4.1 0 4.2-2.7 9.3-6.1 11.3l-40.8 23.5v7.7c0 4.2-2.7 9.3-6.1 11.2-1.7 1-3.2 1-4.3 0.2l-12.3-8.3c-1.1-0.8-1.9-2.2-1.8-4.4 0.1-4 2.3-8.7 4.7-10.4 0 0 6.7-3.9 15.7-9.1zm32.4-65.5c1.7-1 3.2-1 4.3-0.3l12.3 8.3c1.1 0.8 1.9 2.2 1.8 4.4-0.1 4-2.4 8.7-4.7 10.4 0 0.1-6.8 4-15.7 9.2-17.9 10.4-43.5 25-44.8 25.8-3.4 2-6.1 0.1-6.2-4.1 0-4.3 2.7-9.3 6.1-11.2l40.8-23.5v-7.7c0-4.3 2.8-9.3 6.1-11.3z"/>
	<path class="s27" d="m603 615.1l-10.8-6.3c-0.1 0-0.1-0.1-0.2-0.1l10.8 6.3c0.1 0 0.1 0.1 0.2 0.1z"/>
	<path class="s28" d="m645.7 558.9c-0.1-0.1-0.2-0.1-0.4-0.2-0.1 0-0.2-0.1-0.3-0.1h-0.2-0.1-0.9-0.1-0.4c-0.2 0-0.3 0.1-0.5 0.1-0.1 0-0.1 0-0.2 0.1-0.1 0-0.1 0-0.2 0.1-0.1 0-0.2 0.1-0.3 0.1-0.3 0.1-0.5 0.2-0.8 0.4-1.3 0.8-26.9 15.4-44.8 25.8-2.1 1.2-4.1 2.3-5.9 3.4-0.1 0-0.1 0.1-0.2 0.1-0.2 0.1-0.3 0.2-0.5 0.3-0.8 0.5-1.6 0.9-2.3 1.3-0.2 0.1-0.3 0.2-0.5 0.3l-0.6 0.3c-0.2 0.1-0.4 0.3-0.6 0.4-0.2 0.1-0.3 0.2-0.4 0.3-0.2 0.1-0.4 0.2-0.5 0.3l-0.6 0.3c-0.1 0.1-0.2 0.1-0.3 0.1-0.2 0.1-0.5 0.3-0.7 0.4-0.1 0-0.1 0.1-0.2 0.1-0.2 0.1-0.4 0.2-0.5 0.3-0.1 0.1-0.2 0.1-0.3 0.2-0.2 0.1-0.3 0.2-0.4 0.3-0.1 0-0.1 0.1-0.2 0.1-0.1 0.1-0.2 0.1-0.3 0.2-0.1 0-0.1 0.1-0.2 0.1-0.1 0.1-0.2 0.1-0.2 0.1l-0.1 0.1c-0.1 0-0.1 0.1-0.1 0.1h-0.1c-0.2 0.2-0.5 0.4-0.7 0.6l-0.1 0.1-0.1 0.1-0.2 0.2c-0.1 0.1-0.2 0.3-0.4 0.4-0.1 0.1-0.1 0.2-0.2 0.2 0 0 0 0.1-0.1 0.1l-0.1 0.1c-0.1 0.2-0.2 0.3-0.3 0.5-0.1 0.2-0.2 0.3-0.3 0.5v0.2c-0.1 0.1-0.2 0.3-0.2 0.4l-0.3 0.6c0 0.1-0.1 0.2-0.1 0.3 0 0 0 0.1-0.1 0.1 0 0.1-0.1 0.2-0.1 0.2-0.1 0.2-0.2 0.5-0.3 0.7 0 0.1-0.1 0.2-0.1 0.4 0 0.1 0 0.1-0.1 0.2 0 0.1-0.1 0.1-0.1 0.2l-0.3 0.9c0 0.1 0 0.2-0.1 0.2 0 0.1 0 0.2-0.1 0.3 0 0.2-0.1 0.3-0.1 0.5 0 0.2-0.1 0.4-0.1 0.6 0 0.1-0.1 0.3-0.1 0.4v0.2c-0.1 0.4-0.1 0.8-0.1 1.2-0.1 2.2 0.7 3.7 1.8 4.4l12.3 8.3 11.5 6.7-12.3-8.3c-1.1-0.8-1.9-2.2-1.8-4.4 0-0.5 0.1-0.9 0.1-1.4 0-0.1 0-0.3 0.1-0.4 0.1-0.4 0.1-0.7 0.2-1.1 0-0.1 0-0.2 0.1-0.3 0.1-0.4 0.3-0.9 0.4-1.3 0-0.1 0-0.1 0.1-0.2 0.2-0.4 0.3-0.9 0.5-1.3 0 0 0-0.1 0.1-0.1 0.2-0.4 0.4-0.9 0.6-1.3v-0.1c0.2-0.4 0.5-0.8 0.7-1.2 0 0 0-0.1 0.1-0.1 0.2-0.3 0.5-0.6 0.8-0.9l0.1-0.1c0.3-0.3 0.6-0.5 0.8-0.7l0.1-0.1h0.1l0.1-0.1c0 0 0.1 0 0.1-0.1 0.1 0 0.1-0.1 0.2-0.1 0.1 0 0.1-0.1 0.2-0.1 0.1 0 0.2-0.1 0.3-0.2 0.1-0.1 0.2-0.1 0.3-0.2 0.1-0.1 0.2-0.1 0.4-0.2 0.1-0.1 0.2-0.1 0.3-0.2 0.1-0.1 0.3-0.1 0.4-0.2 0.1-0.1 0.3-0.2 0.4-0.2 0.1-0.1 0.3-0.2 0.4-0.2 0.2-0.1 0.4-0.2 0.5-0.3 0.1-0.1 0.3-0.2 0.4-0.3 0.1-0.1 0.3-0.2 0.4-0.2l0.6-0.3c0.5-0.3 1.1-0.7 1.7-1 0.3-0.2 0.6-0.3 0.8-0.5 0.1-0.1 0.3-0.2 0.4-0.2 0.3-0.2 0.6-0.3 0.9-0.5 0.2-0.1 0.4-0.2 0.6-0.4 0.2-0.1 0.4-0.3 0.7-0.4 0.2-0.1 0.4-0.2 0.6-0.4 0.7-0.4 1.5-0.8 2.2-1.3 0.8-0.5 1.7-1 2.5-1.5 17.9-10.4 43.5-25 44.8-25.8 0.4-0.2 0.7-0.4 1.1-0.5 0.1 0 0.1 0 0.2-0.1 0.3-0.1 0.7-0.2 1-0.2h0.1c0.3 0 0.7 0 1 0.1h0.1l0.9 0.3zm-12.4-39.7c-0.1-0.1-0.2-0.1-0.4-0.2-0.1 0-0.2-0.1-0.3-0.1h-0.2-0.1-0.9-0.1-0.4c-0.2 0-0.3 0.1-0.5 0.1-0.1 0-0.1 0-0.2 0.1-0.1 0-0.1 0-0.2 0.1-0.1 0-0.2 0.1-0.3 0.1-0.3 0.1-0.5 0.2-0.8 0.4-0.4 0.2-0.8 0.5-1.1 0.8l-0.3 0.3-0.4 0.4-0.4 0.4c0 0.1-0.1 0.1-0.1 0.1l-0.1 0.1c-0.2 0.2-0.3 0.4-0.5 0.6-0.1 0.2-0.3 0.4-0.4 0.5-0.1 0.2-0.2 0.3-0.3 0.5-0.1 0.2-0.2 0.4-0.3 0.5-0.1 0.1-0.1 0.2-0.2 0.4v0.1c0 0 0 0.1-0.1 0.1l-0.3 0.6-0.3 0.6c0 0.1-0.1 0.2-0.1 0.2v0.1c0 0.1-0.1 0.2-0.1 0.2-0.1 0.2-0.2 0.4-0.2 0.6-0.1 0.2-0.1 0.4-0.2 0.7-0.1 0.3-0.1 0.5-0.2 0.8 0 0.2-0.1 0.4-0.1 0.6v0.3c-0.1 0.5-0.1 1-0.1 1.4v7.7l-40.8 23.5 11.5 6.7 40.8-23.5v-7.7c0-0.5 0-1 0.1-1.6v-0.2l0.3-1.5c0.1-0.5 0.3-1 0.5-1.6v-0.1c0.2-0.5 0.4-1 0.7-1.5v-0.1c0.3-0.5 0.6-1 0.9-1.4 0.3-0.4 0.6-0.9 1-1.2 0-0.1 0.1-0.1 0.1-0.1 0.3-0.3 0.5-0.6 0.8-0.8l0.3-0.3c0.4-0.3 0.7-0.6 1.1-0.8 0.4-0.2 0.7-0.4 1.1-0.5 0.1 0 0.1 0 0.2-0.1 0.3-0.1 0.7-0.2 1-0.2h0.1c0.3 0 0.6 0 0.9 0.1h0.1l0.9 0.3zm-52.2 43.7l-0.3 0.3-0.4 0.4-0.4 0.4c0 0.1-0.1 0.1-0.1 0.2l-0.1 0.1c-0.2 0.2-0.3 0.4-0.5 0.6-0.1 0.2-0.3 0.4-0.4 0.5-0.1 0.2-0.2 0.3-0.3 0.5-0.1 0.2-0.2 0.4-0.3 0.5-0.1 0.1-0.1 0.2-0.2 0.4v0.1c0 0 0 0.1-0.1 0.1l-0.3 0.6-0.3 0.6c0 0.1-0.1 0.2-0.1 0.2v0.1c0 0.1-0.1 0.2-0.1 0.2-0.1 0.2-0.2 0.4-0.2 0.6-0.1 0.2-0.1 0.4-0.2 0.7-0.1 0.3-0.1 0.5-0.2 0.8 0 0.2-0.1 0.4-0.1 0.6v0.3c-0.1 0.5-0.1 1-0.1 1.4 0 2.2 0.8 3.8 2 4.5l11.5 6.7c-1.2-0.7-2-2.3-2-4.5 0-0.5 0-1 0.1-1.6v-0.2l0.3-1.5c0.1-0.5 0.3-1 0.5-1.6v-0.1c0.2-0.5 0.4-1 0.7-1.5v-0.1c0.3-0.5 0.6-1 0.9-1.4 0.3-0.4 0.6-0.9 1-1.2 0-0.1 0.1-0.1 0.1-0.2 0.3-0.3 0.5-0.6 0.8-0.8l0.3-0.3c0.4-0.3 0.7-0.6 1.1-0.8l-11.5-6.7c-0.3 0.5-0.7 0.8-1.1 1.1z"/>
	<path class="s5" d="m608.2 591.8c17.9-10.4 43.5-25 44.8-25.8 3.4-2 6.2-0.1 6.2 4.1 0 4.2-2.7 9.3-6.1 11.3l-40.8 23.5v7.7c0 4.2-2.7 9.3-6.1 11.2-1.7 1-3.2 1-4.3 0.2l-12.3-8.3c-1.1-0.8-1.9-2.2-1.8-4.4 0.1-4 2.3-8.7 4.7-10.4 0 0 6.7-3.9 15.7-9.1z"/>
	<path class="s5" d="m640.6 526.3c1.7-1 3.2-1 4.3-0.3l12.3 8.3c1.1 0.8 1.9 2.2 1.8 4.4-0.1 4-2.4 8.7-4.7 10.4 0 0.1-6.8 4-15.7 9.2-17.9 10.4-43.5 25-44.8 25.8-3.4 2-6.1 0.1-6.2-4.1 0-4.3 2.7-9.3 6.1-11.2l40.8-23.5v-7.7c0-4.3 2.8-9.3 6.1-11.3z"/>
</svg>