<svg version="1.2" xmlns="http://www.w3.org/2000/svg" viewBox="0 0 1024 1024" width="1024" height="1024">
	<title>user</title>
	<style>
		.s0 { fill: #5f6379 } 
		.s1 { fill: #a740ff } 
	</style>
	<path class="s0" d="m512 661.3c-117.6 0-213.3-95.7-213.3-213.3 0-117.6 95.7-213.3 213.3-213.3 117.6 0 213.3 95.7 213.3 213.3 0 117.6-95.7 213.3-213.3 213.3zm0-341.3c-70.6 0-128 57.4-128 128 0 70.6 57.4 128 128 128 70.6 0 128-57.4 128-128 0-70.6-57.4-128-128-128z"/>
	<path class="s0" d="m837 862.9c-15.7 0-30.8-8.7-38.2-23.7-54.5-109.7-164.4-177.9-286.8-177.9-122.4 0-232.3 68.1-286.8 177.9-10.5 21.1-36.1 29.7-57.2 19.2-21.1-10.5-29.7-36.1-19.2-57.2 69-138.9 208.2-225.2 363.2-225.2 155 0 294.2 86.3 363.2 225.2 10.5 21.1 1.9 46.7-19.2 57.2-6.1 3-12.6 4.5-19 4.5z"/>
	<path class="s1" d="m512 1002.7c-270.6 0-490.7-220.1-490.7-490.7 0-270.6 220.1-490.7 490.7-490.7 270.6 0 490.7 220.1 490.7 490.7 0 270.6-220.1 490.7-490.7 490.7zm0-896c-223.5 0-405.3 181.8-405.3 405.3 0 223.5 181.8 405.3 405.3 405.3 223.5 0 405.3-181.8 405.3-405.3 0-223.5-181.8-405.3-405.3-405.3z"/>
</svg>